<svg xmlns="http://www.w3.org/2000/svg" xmlns:xlink="http://www.w3.org/1999/xlink" width="115" zoomAndPan="magnify" viewBox="0 0 86.25 56.249996" height="75" preserveAspectRatio="xMidYMid meet" version="1.0"><defs><g/><clipPath id="b25144989e"><path d="M 45 13 L 69 13 L 69 55.511719 L 45 55.511719 Z M 45 13 " clip-rule="nonzero"/></clipPath><clipPath id="ec37443716"><path d="M 0.199219 42.488281 L 85.3125 42.488281 L 85.3125 55 L 0.199219 55 Z M 0.199219 42.488281 " clip-rule="nonzero"/></clipPath><clipPath id="e45b17d3e7"><path d="M 83.316406 48.660156 L 85.3125 48.660156 L 85.3125 50.65625 L 83.316406 50.65625 Z M 83.316406 48.660156 " clip-rule="nonzero"/></clipPath><clipPath id="ff01f2808a"><path d="M 84.3125 48.660156 C 83.761719 48.660156 83.316406 49.105469 83.316406 49.65625 C 83.316406 50.210938 83.761719 50.65625 84.3125 50.65625 C 84.867188 50.65625 85.3125 50.210938 85.3125 49.65625 C 85.3125 49.105469 84.867188 48.660156 84.3125 48.660156 Z M 84.3125 48.660156 " clip-rule="nonzero"/></clipPath></defs><g fill="#3945c2" fill-opacity="1"><g transform="translate(18.597734, 33.280623)"><g><path d="M 23.5625 -24.996094 C 22.933594 -25.660156 22.125 -26.175781 21.167969 -26.578125 C 20.175781 -26.949219 19.03125 -27.167969 17.78125 -27.167969 C 16.382812 -27.167969 15.167969 -26.949219 14.101562 -26.507812 C 12.996094 -26.066406 12.113281 -25.476562 11.414062 -24.738281 C 10.714844 -23.964844 10.234375 -23.121094 9.976562 -22.199219 C 9.683594 -21.242188 9.570312 -20.359375 9.71875 -19.476562 C 9.867188 -18.519531 10.234375 -17.707031 10.824219 -17.082031 C 11.375 -16.417969 12 -15.832031 12.738281 -15.316406 C 13.402344 -14.800781 14.136719 -14.320312 14.910156 -13.878906 C 15.683594 -13.402344 16.457031 -12.957031 17.265625 -12.515625 C 18.003906 -12.074219 18.738281 -11.671875 19.4375 -11.226562 C 20.136719 -10.785156 20.726562 -10.382812 21.207031 -10.011719 C 21.648438 -9.609375 21.976562 -9.277344 22.164062 -9.019531 C 22.308594 -8.726562 22.382812 -8.539062 22.382812 -8.394531 L 22.382812 -8.285156 C 22.421875 -7.03125 22.015625 -6 21.207031 -5.117188 C 20.320312 -4.234375 19.328125 -3.828125 18.1875 -3.828125 C 17.523438 -3.828125 16.898438 -3.902344 16.234375 -4.050781 C 15.535156 -4.195312 14.871094 -4.601562 14.285156 -5.300781 C 14.171875 -5.375 13.914062 -5.667969 13.511719 -6.109375 C 13.070312 -6.554688 12.515625 -7.105469 11.816406 -7.839844 C 11.117188 -8.578125 10.34375 -9.386719 9.460938 -10.34375 C 8.578125 -11.226562 7.65625 -12.1875 6.738281 -13.179688 C 6.554688 -13.328125 6.367188 -13.402344 6.148438 -13.472656 C 5.925781 -13.546875 5.742188 -13.546875 5.558594 -13.511719 C 4.933594 -13.363281 4.453125 -12.957031 4.085938 -12.257812 C 3.867188 -11.890625 3.753906 -11.597656 3.753906 -11.339844 C 3.753906 -11.042969 3.828125 -10.785156 4.050781 -10.566406 C 4.96875 -9.570312 5.851562 -8.613281 6.738281 -7.730469 C 7.621094 -6.773438 8.394531 -5.964844 9.128906 -5.226562 C 9.792969 -4.492188 10.382812 -3.902344 10.859375 -3.421875 C 11.300781 -2.910156 11.558594 -2.6875 11.558594 -2.722656 C 12.628906 -1.546875 13.804688 -0.808594 15.058594 -0.515625 C 16.273438 -0.183594 17.304688 -0.0351562 18.1875 -0.0351562 C 19.621094 -0.0351562 20.949219 -0.40625 22.164062 -1.140625 C 23.339844 -1.878906 24.296875 -2.835938 25.035156 -4.011719 C 25.402344 -4.636719 25.660156 -5.339844 25.878906 -6.074219 C 26.101562 -6.8125 26.175781 -7.546875 26.175781 -8.355469 L 26.175781 -8.429688 C 26.136719 -9.386719 25.878906 -10.234375 25.363281 -10.96875 C 24.851562 -11.707031 24.261719 -12.332031 23.597656 -12.921875 C 22.933594 -13.4375 22.199219 -13.953125 21.425781 -14.429688 C 20.652344 -14.871094 19.878906 -15.351562 19.105469 -15.792969 C 18.296875 -16.234375 17.558594 -16.640625 16.859375 -17.082031 C 16.125 -17.523438 15.460938 -17.929688 14.945312 -18.332031 C 14.429688 -18.703125 14.0625 -19.070312 13.84375 -19.363281 C 13.585938 -19.660156 13.472656 -19.878906 13.472656 -19.988281 C 13.402344 -20.320312 13.4375 -20.691406 13.546875 -21.09375 C 13.65625 -21.460938 13.878906 -21.832031 14.171875 -22.164062 C 14.46875 -22.457031 14.910156 -22.75 15.460938 -23.046875 C 16.015625 -23.265625 16.789062 -23.414062 17.78125 -23.414062 C 18.703125 -23.414062 19.363281 -23.304688 19.769531 -23.15625 C 20.175781 -22.972656 20.503906 -22.75 20.761719 -22.457031 L 21.535156 -21.683594 C 21.757812 -21.460938 22.015625 -21.167969 22.308594 -20.875 C 22.605469 -20.578125 22.898438 -20.246094 23.265625 -19.878906 C 23.78125 -19.328125 24.519531 -18.519531 25.550781 -17.449219 C 26.507812 -16.382812 27.351562 -15.5 28.050781 -14.800781 C 28.421875 -14.359375 28.9375 -14.320312 29.671875 -14.652344 C 30.371094 -14.945312 30.8125 -15.425781 31.035156 -16.050781 C 31.070312 -16.199219 31.109375 -16.34375 31.109375 -16.492188 L 31.109375 -16.640625 C 31.070312 -16.859375 30.996094 -17.046875 30.886719 -17.265625 C 30.152344 -18.003906 29.304688 -18.921875 28.308594 -20.027344 C 27.28125 -21.132812 26.46875 -21.941406 25.953125 -22.53125 L 24.222656 -24.261719 C 24.003906 -24.480469 23.820312 -24.664062 23.671875 -24.851562 C 23.488281 -24.996094 23.449219 -25.070312 23.5625 -24.996094 Z M 0.40625 -10.566406 L 0.292969 -10.566406 C 0.257812 -10.566406 0.222656 -10.527344 0.222656 -10.527344 C 0.183594 -10.527344 0.148438 -10.492188 0.148438 -10.492188 L 0 -10.34375 L 0 -10.050781 C 0 -10.011719 0.0351562 -9.976562 0.0351562 -9.976562 L 0.109375 -9.902344 L 14.246094 4.894531 L 14.320312 4.96875 C 14.320312 5.007812 14.359375 5.007812 14.429688 5.007812 C 14.429688 5.042969 14.46875 5.042969 14.503906 5.042969 L 14.617188 5.042969 C 14.617188 5.042969 14.652344 5.007812 14.6875 5.007812 C 14.726562 5.007812 14.761719 4.96875 14.800781 4.96875 C 14.800781 4.96875 14.835938 4.933594 14.835938 4.894531 C 14.835938 4.894531 14.871094 4.859375 14.910156 4.785156 C 14.910156 4.785156 14.910156 4.75 14.945312 4.710938 L 14.945312 4.601562 C 14.910156 4.601562 14.910156 4.566406 14.910156 4.527344 C 14.910156 4.492188 14.871094 4.453125 14.871094 4.417969 L 14.800781 4.34375 L 0.664062 -10.457031 L 0.625 -10.492188 L 0.589844 -10.527344 C 0.550781 -10.527344 0.515625 -10.527344 0.515625 -10.566406 Z M 20.910156 -32.433594 L 20.835938 -32.433594 C 20.761719 -32.433594 20.761719 -32.433594 20.800781 -32.433594 C 20.800781 -32.433594 20.800781 -32.433594 20.761719 -32.433594 C 20.726562 -32.398438 20.691406 -32.398438 20.691406 -32.398438 C 20.652344 -32.359375 20.617188 -32.359375 20.617188 -32.359375 L 20.542969 -32.285156 C 20.542969 -32.25 20.503906 -32.210938 20.503906 -32.175781 L 20.503906 -31.917969 C 20.503906 -31.882812 20.542969 -31.84375 20.578125 -31.808594 C 20.578125 -31.769531 20.578125 -31.769531 20.617188 -31.769531 C 26.875 -25.144531 31.585938 -20.210938 34.753906 -16.933594 C 34.753906 -16.933594 34.789062 -16.898438 34.789062 -16.898438 L 34.828125 -16.859375 C 34.828125 -16.859375 34.863281 -16.824219 34.898438 -16.824219 C 34.9375 -16.824219 34.972656 -16.789062 35.011719 -16.789062 L 35.085938 -16.789062 C 35.121094 -16.789062 35.15625 -16.789062 35.195312 -16.824219 C 35.195312 -16.824219 35.230469 -16.824219 35.269531 -16.859375 L 35.34375 -16.933594 L 35.414062 -17.007812 C 35.414062 -17.007812 35.414062 -17.046875 35.453125 -17.082031 L 35.453125 -17.265625 C 35.414062 -17.304688 35.414062 -17.339844 35.414062 -17.375 L 35.34375 -17.449219 C 29.007812 -24.039062 24.296875 -29.007812 21.167969 -32.324219 C 21.132812 -32.324219 21.132812 -32.324219 21.132812 -32.359375 L 21.09375 -32.359375 C 21.058594 -32.359375 21.019531 -32.398438 20.984375 -32.398438 C 20.949219 -32.398438 20.910156 -32.433594 20.910156 -32.433594 Z M 20.910156 -32.433594 "/></g></g></g><g clip-path="url(#b25144989e)"><g fill="#3945c2" fill-opacity="1"><g transform="translate(42.126424, 38.477765)"><g><path d="M 4.695312 -22.710938 L 4.574219 -22.710938 C 4.511719 -22.710938 4.511719 -22.710938 4.542969 -22.710938 L 4.574219 -22.710938 C 4.574219 -22.710938 4.542969 -22.679688 4.449219 -22.679688 C 4.296875 -22.652344 4.203125 -22.621094 4.144531 -22.621094 C 4.019531 -22.558594 3.929688 -22.496094 3.804688 -22.4375 C 3.683594 -22.34375 3.589844 -22.25 3.53125 -22.191406 C 3.40625 -22.066406 3.34375 -21.976562 3.316406 -21.851562 C 3.253906 -21.730469 3.191406 -21.605469 3.160156 -21.484375 C 3.128906 -12.675781 3.128906 -6.078125 3.128906 -1.65625 C 3.128906 -1.351562 3.222656 -1.074219 3.46875 -0.828125 C 3.683594 -0.582031 3.960938 -0.429688 4.328125 -0.335938 C 4.789062 -0.214844 5.21875 -0.246094 5.585938 -0.492188 C 5.953125 -0.738281 6.167969 -1.167969 6.261719 -1.78125 L 6.261719 -11.109375 C 6.261719 -11.507812 6.445312 -11.816406 6.8125 -12.0625 C 7.183594 -12.277344 7.457031 -12.0625 7.640625 -11.449219 C 8.960938 -6.90625 9.976562 -3.5 10.648438 -1.226562 L 10.710938 -1.042969 C 10.710938 -0.980469 10.742188 -0.921875 10.804688 -0.859375 L 11.050781 -0.550781 L 11.355469 -0.308594 C 11.449219 -0.246094 11.570312 -0.183594 11.722656 -0.183594 C 11.847656 -0.121094 11.96875 -0.09375 12.09375 -0.09375 L 14.394531 -0.09375 C 14.457031 -0.09375 14.546875 -0.09375 14.609375 -0.121094 C 14.671875 -0.121094 14.730469 -0.121094 14.792969 -0.152344 C 14.917969 -0.183594 15.039062 -0.246094 15.160156 -0.308594 C 15.285156 -0.367188 15.375 -0.429688 15.46875 -0.523438 C 15.5625 -0.582031 15.652344 -0.707031 15.714844 -0.828125 C 15.777344 -0.921875 15.835938 -1.042969 15.898438 -1.167969 C 17.1875 -5.585938 18.140625 -8.902344 18.8125 -11.140625 C 18.9375 -11.507812 19.183594 -11.722656 19.582031 -11.816406 C 19.949219 -11.878906 20.132812 -11.632812 20.195312 -11.109375 L 20.195312 15.867188 C 20.195312 15.960938 20.195312 16.019531 20.226562 16.082031 C 20.316406 16.390625 20.5625 16.636719 20.960938 16.757812 C 21.148438 16.878906 21.390625 16.910156 21.636719 16.910156 C 21.820312 16.910156 22.007812 16.878906 22.222656 16.820312 C 22.621094 16.726562 22.894531 16.542969 23.082031 16.296875 C 23.234375 16.050781 23.324219 15.804688 23.324219 15.5625 L 23.324219 -21.332031 L 23.265625 -21.515625 C 23.203125 -21.636719 23.171875 -21.761719 23.109375 -21.882812 C 23.050781 -22.007812 22.957031 -22.097656 22.894531 -22.222656 C 22.804688 -22.28125 22.710938 -22.375 22.589844 -22.464844 C 22.464844 -22.527344 22.375 -22.558594 22.25 -22.621094 C 22.128906 -22.652344 21.976562 -22.679688 21.851562 -22.679688 C 21.730469 -22.679688 21.605469 -22.679688 21.484375 -22.679688 C 20.871094 -22.679688 20.410156 -22.710938 20.132812 -22.710938 L 19.917969 -22.710938 L 19.734375 -22.652344 C 19.613281 -22.589844 19.488281 -22.558594 19.367188 -22.496094 C 19.242188 -22.4375 19.152344 -22.375 19.058594 -22.28125 C 18.9375 -22.191406 18.875 -22.097656 18.8125 -21.976562 C 18.753906 -21.851562 18.691406 -21.761719 18.628906 -21.636719 C 16.664062 -15.007812 15.222656 -10.066406 14.273438 -6.78125 C 14.027344 -6.167969 13.65625 -5.894531 13.199219 -5.984375 C 12.707031 -6.078125 12.398438 -6.351562 12.277344 -6.8125 C 10.34375 -13.382812 8.902344 -18.292969 7.949219 -21.578125 C 7.917969 -21.636719 7.886719 -21.699219 7.886719 -21.792969 C 7.855469 -21.851562 7.828125 -21.882812 7.796875 -21.945312 C 7.703125 -22.035156 7.613281 -22.128906 7.519531 -22.25 C 7.425781 -22.34375 7.335938 -22.4375 7.242188 -22.496094 C 7.121094 -22.558594 6.996094 -22.589844 6.875 -22.652344 C 6.753906 -22.652344 6.597656 -22.679688 6.476562 -22.710938 Z M 23.050781 -25.230469 L 19.304688 -25.230469 C 18.660156 -25.230469 18.140625 -25.105469 17.769531 -24.859375 C 17.339844 -24.613281 17.035156 -24.339844 16.820312 -24.03125 C 16.605469 -23.695312 16.449219 -23.355469 16.359375 -23.050781 C 16.234375 -22.710938 16.175781 -22.496094 16.113281 -22.375 L 16.113281 -22.34375 L 16.082031 -22.28125 C 14.855469 -18.046875 13.902344 -14.855469 13.289062 -12.738281 L 13.289062 -12.707031 L 13.257812 -12.675781 L 13.257812 -12.492188 C 13.257812 -12.460938 13.257812 -12.429688 13.289062 -12.429688 L 13.351562 -12.367188 L 13.414062 -12.308594 C 13.414062 -12.277344 13.441406 -12.277344 13.472656 -12.277344 L 13.566406 -12.277344 C 13.566406 -12.246094 13.597656 -12.246094 13.628906 -12.277344 L 13.71875 -12.277344 L 13.78125 -12.339844 L 13.84375 -12.398438 C 13.84375 -12.398438 13.84375 -12.429688 13.871094 -12.460938 C 13.871094 -12.460938 13.871094 -12.492188 13.902344 -12.554688 L 13.902344 -12.613281 C 15.132812 -16.820312 16.082031 -19.980469 16.695312 -22.097656 L 16.726562 -22.128906 L 16.726562 -22.160156 C 16.789062 -22.34375 16.878906 -22.589844 16.972656 -22.867188 C 17.035156 -23.140625 17.15625 -23.417969 17.339844 -23.664062 C 17.523438 -23.910156 17.738281 -24.125 18.046875 -24.308594 C 18.324219 -24.492188 18.753906 -24.585938 19.304688 -24.585938 L 23.050781 -24.585938 C 23.632812 -24.585938 24.0625 -24.460938 24.371094 -24.277344 C 24.644531 -24.09375 24.859375 -23.847656 24.984375 -23.601562 C 25.105469 -23.355469 25.199219 -23.082031 25.230469 -22.835938 C 25.230469 -22.589844 25.257812 -22.40625 25.257812 -22.28125 L 25.257812 3.253906 C 25.257812 3.285156 25.289062 3.316406 25.289062 3.316406 L 25.351562 3.375 C 25.351562 3.40625 25.351562 3.4375 25.414062 3.4375 C 25.414062 3.46875 25.445312 3.46875 25.472656 3.46875 C 25.472656 3.5 25.503906 3.5 25.535156 3.5 L 25.628906 3.5 C 25.628906 3.5 25.660156 3.46875 25.71875 3.46875 C 25.71875 3.46875 25.75 3.4375 25.78125 3.4375 L 25.84375 3.375 C 25.84375 3.375 25.84375 3.34375 25.875 3.285156 C 25.875 3.285156 25.875 3.253906 25.902344 3.222656 L 25.902344 -22.28125 C 25.902344 -22.375 25.875 -22.589844 25.875 -22.925781 C 25.8125 -23.234375 25.71875 -23.570312 25.566406 -23.910156 C 25.382812 -24.246094 25.074219 -24.554688 24.675781 -24.828125 C 24.277344 -25.074219 23.726562 -25.230469 23.050781 -25.230469 Z M 23.050781 -25.230469 "/></g></g></g></g><g clip-path="url(#ec37443716)"><path fill="#e6e6e6" d="M 76.480469 42.484375 C 77.09375 42.484375 77.585938 42.980469 77.585938 43.585938 C 77.585938 44.199219 77.089844 44.691406 76.480469 44.691406 C 75.9375 44.691406 75.488281 44.300781 75.394531 43.785156 L 41.347656 43.785156 L 37.242188 47.890625 L 1 47.890625 L 1 47.492188 L 37.082031 47.492188 L 41.183594 43.390625 L 75.394531 43.390625 C 75.488281 42.875 75.9375 42.484375 76.480469 42.484375 M 0.210938 49.457031 L 45.132812 49.457031 L 49.308594 45.28125 L 69.929688 45.28125 L 69.929688 45.675781 L 49.472656 45.675781 L 45.691406 49.457031 L 85.328125 49.457031 L 85.328125 49.851562 L 42.546875 49.851562 L 46.953125 54.804688 L 4.789062 54.804688 L 0.382812 49.851562 L 0.207031 49.851562 L 0.207031 49.457031 Z M 0.210938 49.457031 " fill-opacity="1" fill-rule="nonzero"/></g><g clip-path="url(#e45b17d3e7)"><g clip-path="url(#ff01f2808a)"><path fill="#e6e6e6" d="M 83.316406 48.660156 L 85.3125 48.660156 L 85.3125 50.65625 L 83.316406 50.65625 Z M 83.316406 48.660156 " fill-opacity="1" fill-rule="nonzero"/></g></g><g fill="#3945c2" fill-opacity="1"><g transform="translate(3.064635, 43.179462)"><g><path d="M 2.027344 0 L 2.027344 -1.84375 L 0.183594 -1.84375 L 0.183594 -1.472656 L 0.367188 -1.472656 L 0.367188 -0.367188 L 0.183594 -0.367188 L 0.183594 0 Z M 1.65625 -0.367188 L 0.738281 -0.367188 L 0.738281 -1.472656 L 1.65625 -1.472656 Z M 1.65625 -0.367188 "/></g></g></g><g fill="#3945c2" fill-opacity="1"><g transform="translate(5.275175, 43.179462)"><g><path d="M 2.027344 0 L 2.027344 -0.367188 L 0.550781 -0.367188 L 0.550781 -0.738281 L 2.027344 -0.738281 L 2.027344 -1.105469 L 0.550781 -1.105469 L 0.550781 -1.472656 L 2.027344 -1.472656 L 2.027344 -1.84375 L 0.183594 -1.84375 L 0.183594 0 Z M 2.027344 0 "/></g></g></g><g fill="#3945c2" fill-opacity="1"><g transform="translate(7.485716, 43.179462)"><g><path d="M 2.027344 -1.472656 L 2.027344 -1.84375 L 1.472656 -1.84375 L 1.472656 -0.367188 L 0.738281 -0.367188 L 0.738281 -1.84375 L 0.183594 -1.84375 L 0.183594 -1.472656 L 0.367188 -1.472656 L 0.367188 0 L 1.84375 0 L 1.84375 -1.472656 Z M 2.027344 -1.472656 "/></g></g></g><g fill="#3945c2" fill-opacity="1"><g transform="translate(9.696257, 43.179462)"><g><path d="M 2.027344 0 L 2.027344 -0.367188 L 0.550781 -0.367188 L 0.550781 -0.738281 L 2.027344 -0.738281 L 2.027344 -1.105469 L 0.550781 -1.105469 L 0.550781 -1.472656 L 2.027344 -1.472656 L 2.027344 -1.84375 L 0.183594 -1.84375 L 0.183594 0 Z M 2.027344 0 "/></g></g></g><g fill="#3945c2" fill-opacity="1"><g transform="translate(11.906798, 43.179462)"><g><path d="M 2.027344 0 L 2.027344 -0.367188 L 0.550781 -0.367188 L 0.550781 -1.84375 L 0.183594 -1.84375 L 0.183594 0 Z M 2.027344 0 "/></g></g></g><g fill="#3945c2" fill-opacity="1"><g transform="translate(14.117339, 43.179462)"><g><path d="M 2.027344 0 L 2.027344 -1.84375 L 0.183594 -1.84375 L 0.183594 0 Z M 1.65625 -0.367188 L 0.550781 -0.367188 L 0.550781 -1.472656 L 1.65625 -1.472656 Z M 1.65625 -0.367188 "/></g></g></g><g fill="#3945c2" fill-opacity="1"><g transform="translate(16.32788, 43.179462)"><g><path d="M 2.027344 -0.738281 L 2.027344 -1.84375 L 0.183594 -1.84375 L 0.183594 0 L 0.550781 0 L 0.550781 -0.738281 Z M 1.65625 -1.105469 L 0.550781 -1.105469 L 0.550781 -1.472656 L 1.65625 -1.472656 Z M 1.65625 -1.105469 "/></g></g></g><g fill="#e6e6e6" fill-opacity="1"><g transform="translate(18.539033, 43.179462)"><g/></g></g><g fill="#e6e6e6" fill-opacity="1"><g transform="translate(19.920622, 43.179462)"><g><path d="M 2.027344 0 L 2.027344 -1.105469 L 0.550781 -1.105469 L 0.550781 -1.472656 L 2.027344 -1.472656 L 2.027344 -1.84375 L 0.183594 -1.84375 L 0.183594 -0.738281 L 1.65625 -0.738281 L 1.65625 -0.367188 L 0.183594 -0.367188 L 0.183594 0 Z M 2.027344 0 "/></g></g></g><g fill="#e6e6e6" fill-opacity="1"><g transform="translate(22.131163, 43.179462)"><g><path d="M 2.027344 0 L 2.027344 -0.367188 L 0.550781 -0.367188 L 0.550781 -0.738281 L 2.027344 -0.738281 L 2.027344 -1.105469 L 0.550781 -1.105469 L 0.550781 -1.472656 L 2.027344 -1.472656 L 2.027344 -1.84375 L 0.183594 -1.84375 L 0.183594 0 Z M 2.027344 0 "/></g></g></g><g fill="#e6e6e6" fill-opacity="1"><g transform="translate(24.341704, 43.179462)"><g><path d="M 2.027344 0 L 2.027344 -0.367188 L 0.550781 -0.367188 L 0.550781 -1.472656 L 2.027344 -1.472656 L 2.027344 -1.84375 L 0.183594 -1.84375 L 0.183594 0 Z M 2.027344 0 "/></g></g></g><g fill="#e6e6e6" fill-opacity="1"><g transform="translate(26.552244, 43.179462)"><g><path d="M 2.027344 0 L 2.027344 -1.84375 L 1.65625 -1.84375 L 1.65625 -0.367188 L 0.550781 -0.367188 L 0.550781 -1.84375 L 0.183594 -1.84375 L 0.183594 0 Z M 2.027344 0 "/></g></g></g><g fill="#e6e6e6" fill-opacity="1"><g transform="translate(28.762785, 43.179462)"><g><path d="M 2.027344 -0.738281 L 2.027344 -1.84375 L 0.183594 -1.84375 L 0.183594 0 L 0.550781 0 L 0.550781 -0.738281 L 1.289062 -0.738281 L 1.289062 0 L 1.65625 0 L 1.65625 -0.738281 Z M 1.65625 -1.105469 L 0.550781 -1.105469 L 0.550781 -1.472656 L 1.65625 -1.472656 Z M 1.65625 -1.105469 "/></g></g></g><g fill="#e6e6e6" fill-opacity="1"><g transform="translate(30.973326, 43.179462)"><g><path d="M 2.027344 0 L 2.027344 -0.367188 L 0.550781 -0.367188 L 0.550781 -0.738281 L 2.027344 -0.738281 L 2.027344 -1.105469 L 0.550781 -1.105469 L 0.550781 -1.472656 L 2.027344 -1.472656 L 2.027344 -1.84375 L 0.183594 -1.84375 L 0.183594 0 Z M 2.027344 0 "/></g></g></g><g fill="#3945c2" fill-opacity="1"><g transform="translate(10.831184, 46.077488)"><g><path d="M 2.027344 -0.738281 L 2.027344 -1.84375 L 0.183594 -1.84375 L 0.183594 0 L 0.550781 0 L 0.550781 -0.738281 Z M 1.65625 -1.105469 L 0.550781 -1.105469 L 0.550781 -1.472656 L 1.65625 -1.472656 Z M 1.65625 -1.105469 "/></g></g></g><g fill="#3945c2" fill-opacity="1"><g transform="translate(13.041725, 46.077488)"><g><path d="M 2.027344 -0.738281 L 2.027344 -1.84375 L 0.183594 -1.84375 L 0.183594 0 L 0.550781 0 L 0.550781 -0.738281 L 1.289062 -0.738281 L 1.289062 0 L 1.65625 0 L 1.65625 -0.738281 Z M 1.65625 -1.105469 L 0.550781 -1.105469 L 0.550781 -1.472656 L 1.65625 -1.472656 Z M 1.65625 -1.105469 "/></g></g></g><g fill="#3945c2" fill-opacity="1"><g transform="translate(15.252266, 46.077488)"><g><path d="M 2.027344 0 L 2.027344 -1.84375 L 0.183594 -1.84375 L 0.183594 0 Z M 1.65625 -0.367188 L 0.550781 -0.367188 L 0.550781 -1.472656 L 1.65625 -1.472656 Z M 1.65625 -0.367188 "/></g></g></g><g fill="#3945c2" fill-opacity="1"><g transform="translate(17.462807, 46.077488)"><g><path d="M 2.027344 -1.472656 L 2.027344 -1.84375 L 0.183594 -1.84375 L 0.183594 -1.472656 L 0.921875 -1.472656 L 0.921875 0 L 1.289062 0 L 1.289062 -1.472656 Z M 2.027344 -1.472656 "/></g></g></g><g fill="#3945c2" fill-opacity="1"><g transform="translate(19.673348, 46.077488)"><g><path d="M 2.027344 0 L 2.027344 -0.367188 L 0.550781 -0.367188 L 0.550781 -0.738281 L 2.027344 -0.738281 L 2.027344 -1.105469 L 0.550781 -1.105469 L 0.550781 -1.472656 L 2.027344 -1.472656 L 2.027344 -1.84375 L 0.183594 -1.84375 L 0.183594 0 Z M 2.027344 0 "/></g></g></g><g fill="#3945c2" fill-opacity="1"><g transform="translate(21.883889, 46.077488)"><g><path d="M 2.027344 0 L 2.027344 -0.367188 L 0.550781 -0.367188 L 0.550781 -1.472656 L 2.027344 -1.472656 L 2.027344 -1.84375 L 0.183594 -1.84375 L 0.183594 0 Z M 2.027344 0 "/></g></g></g><g fill="#3945c2" fill-opacity="1"><g transform="translate(24.09443, 46.077488)"><g><path d="M 2.027344 -1.472656 L 2.027344 -1.84375 L 0.183594 -1.84375 L 0.183594 -1.472656 L 0.921875 -1.472656 L 0.921875 0 L 1.289062 0 L 1.289062 -1.472656 Z M 2.027344 -1.472656 "/></g></g></g></svg>