<svg xmlns="http://www.w3.org/2000/svg" xmlns:xlink="http://www.w3.org/1999/xlink" width="1080" zoomAndPan="magnify" viewBox="0 0 810 809.999993" height="1080" preserveAspectRatio="xMidYMid meet" version="1.0"><defs><clipPath id="fc73b9207b"><path d="M 739 323 L 794.195312 323 L 794.195312 379 L 739 379 Z M 739 323 " clip-rule="nonzero"/></clipPath></defs><path fill="#fca265" d="M 210.316406 169.277344 L 148.992188 169.277344 C 148.992188 183.257812 137.660156 194.589844 123.683594 194.589844 C 109.707031 194.589844 98.375 183.257812 98.375 169.277344 L 37.046875 169.277344 C 29.855469 169.277344 24.03125 175.109375 24.03125 182.296875 L 24.03125 342.9375 C 24.03125 350.128906 29.855469 355.957031 37.046875 355.957031 L 166.804688 355.957031 L 223.339844 299.414062 L 223.339844 182.296875 C 223.339844 175.109375 217.507812 169.277344 210.316406 169.277344 Z M 210.316406 169.277344 " fill-opacity="1" fill-rule="nonzero"/><path fill="#f5c84c" d="M 148.992188 169.277344 C 148.992188 170.105469 148.953125 170.933594 148.871094 171.757812 C 148.789062 172.582031 148.667969 173.402344 148.507812 174.214844 C 148.34375 175.027344 148.144531 175.832031 147.902344 176.625 C 147.664062 177.417969 147.382812 178.199219 147.066406 178.964844 C 146.75 179.730469 146.394531 180.476562 146.003906 181.210938 C 145.613281 181.941406 145.1875 182.652344 144.726562 183.339844 C 144.265625 184.03125 143.773438 184.695312 143.25 185.335938 C 142.722656 185.976562 142.167969 186.589844 141.582031 187.175781 C 140.992188 187.761719 140.378906 188.316406 139.738281 188.84375 C 139.097656 189.371094 138.433594 189.863281 137.746094 190.324219 C 137.054688 190.785156 136.34375 191.210938 135.613281 191.601562 C 134.882812 191.992188 134.136719 192.347656 133.371094 192.664062 C 132.605469 192.980469 131.824219 193.257812 131.03125 193.5 C 130.238281 193.742188 129.433594 193.941406 128.621094 194.101562 C 127.808594 194.265625 126.988281 194.386719 126.164062 194.46875 C 125.339844 194.550781 124.511719 194.589844 123.683594 194.589844 C 122.855469 194.589844 122.027344 194.550781 121.203125 194.46875 C 120.378906 194.386719 119.558594 194.265625 118.746094 194.101562 C 117.933594 193.941406 117.128906 193.742188 116.335938 193.5 C 115.542969 193.257812 114.765625 192.980469 114 192.664062 C 113.234375 192.347656 112.484375 191.992188 111.753906 191.601562 C 111.023438 191.210938 110.3125 190.785156 109.625 190.324219 C 108.933594 189.863281 108.269531 189.371094 107.628906 188.84375 C 106.988281 188.316406 106.375 187.761719 105.789062 187.175781 C 105.203125 186.589844 104.644531 185.976562 104.121094 185.335938 C 103.59375 184.695312 103.101562 184.03125 102.640625 183.339844 C 102.179688 182.652344 101.753906 181.941406 101.363281 181.210938 C 100.972656 180.476562 100.617188 179.730469 100.300781 178.964844 C 99.984375 178.199219 99.707031 177.417969 99.464844 176.625 C 99.222656 175.832031 99.023438 175.027344 98.859375 174.214844 C 98.699219 173.402344 98.578125 172.582031 98.496094 171.757812 C 98.414062 170.933594 98.375 170.105469 98.375 169.277344 C 98.375 168.449219 98.414062 167.621094 98.496094 166.796875 C 98.578125 165.972656 98.699219 165.152344 98.859375 164.339844 C 99.023438 163.527344 99.222656 162.722656 99.464844 161.929688 C 99.707031 161.136719 99.984375 160.355469 100.300781 159.589844 C 100.617188 158.824219 100.972656 158.078125 101.363281 157.34375 C 101.753906 156.613281 102.179688 155.902344 102.640625 155.214844 C 103.101562 154.523438 103.59375 153.859375 104.121094 153.21875 C 104.644531 152.578125 105.203125 151.964844 105.789062 151.378906 C 106.375 150.792969 106.988281 150.238281 107.628906 149.710938 C 108.269531 149.183594 108.933594 148.691406 109.625 148.230469 C 110.3125 147.769531 111.023438 147.34375 111.753906 146.953125 C 112.484375 146.5625 113.234375 146.207031 114 145.890625 C 114.765625 145.574219 115.542969 145.296875 116.335938 145.054688 C 117.128906 144.8125 117.933594 144.613281 118.746094 144.453125 C 119.558594 144.289062 120.378906 144.167969 121.203125 144.085938 C 122.027344 144.003906 122.855469 143.964844 123.683594 143.964844 C 124.511719 143.964844 125.339844 144.003906 126.164062 144.085938 C 126.988281 144.167969 127.808594 144.289062 128.621094 144.453125 C 129.433594 144.613281 130.238281 144.8125 131.03125 145.054688 C 131.824219 145.296875 132.605469 145.574219 133.371094 145.890625 C 134.136719 146.207031 134.882812 146.5625 135.613281 146.953125 C 136.34375 147.34375 137.054688 147.769531 137.746094 148.230469 C 138.433594 148.691406 139.097656 149.183594 139.738281 149.710938 C 140.378906 150.238281 140.992188 150.792969 141.582031 151.378906 C 142.167969 151.964844 142.722656 152.578125 143.25 153.21875 C 143.773438 153.859375 144.265625 154.523438 144.726562 155.214844 C 145.1875 155.902344 145.613281 156.613281 146.003906 157.34375 C 146.394531 158.078125 146.75 158.824219 147.066406 159.589844 C 147.382812 160.355469 147.664062 161.136719 147.902344 161.929688 C 148.144531 162.722656 148.34375 163.527344 148.507812 164.339844 C 148.667969 165.152344 148.789062 165.972656 148.871094 166.796875 C 148.953125 167.621094 148.992188 168.449219 148.992188 169.277344 Z M 148.992188 169.277344 " fill-opacity="1" fill-rule="nonzero"/><path fill="#fca265" d="M 210.316406 392.34375 L 148.992188 392.34375 C 148.992188 406.324219 137.660156 417.65625 123.683594 417.65625 C 109.707031 417.65625 98.375 406.324219 98.375 392.34375 L 37.046875 392.34375 C 29.855469 392.34375 24.03125 398.175781 24.03125 405.363281 L 24.03125 566.003906 C 24.03125 573.195312 29.855469 579.023438 37.046875 579.023438 L 166.804688 579.023438 L 223.339844 522.480469 L 223.339844 405.363281 C 223.339844 398.175781 217.507812 392.34375 210.316406 392.34375 Z M 210.316406 392.34375 " fill-opacity="1" fill-rule="nonzero"/><path fill="#f5c84c" d="M 148.992188 392.34375 C 148.992188 393.171875 148.953125 394 148.871094 394.824219 C 148.789062 395.648438 148.667969 396.46875 148.507812 397.28125 C 148.34375 398.09375 148.144531 398.898438 147.902344 399.691406 C 147.664062 400.484375 147.382812 401.265625 147.066406 402.03125 C 146.75 402.796875 146.394531 403.542969 146.003906 404.277344 C 145.613281 405.007812 145.1875 405.71875 144.726562 406.40625 C 144.265625 407.097656 143.773438 407.761719 143.25 408.402344 C 142.722656 409.042969 142.167969 409.65625 141.582031 410.242188 C 140.992188 410.828125 140.378906 411.382812 139.738281 411.910156 C 139.097656 412.4375 138.433594 412.929688 137.746094 413.390625 C 137.054688 413.851562 136.34375 414.277344 135.613281 414.667969 C 134.882812 415.058594 134.136719 415.414062 133.371094 415.730469 C 132.605469 416.046875 131.824219 416.324219 131.03125 416.566406 C 130.238281 416.808594 129.433594 417.007812 128.621094 417.167969 C 127.808594 417.332031 126.988281 417.453125 126.164062 417.535156 C 125.339844 417.617188 124.511719 417.65625 123.683594 417.65625 C 122.855469 417.65625 122.027344 417.617188 121.203125 417.535156 C 120.378906 417.453125 119.558594 417.332031 118.746094 417.167969 C 117.933594 417.007812 117.128906 416.808594 116.335938 416.566406 C 115.542969 416.324219 114.765625 416.046875 114 415.730469 C 113.234375 415.414062 112.484375 415.058594 111.753906 414.667969 C 111.023438 414.277344 110.3125 413.851562 109.625 413.390625 C 108.933594 412.929688 108.269531 412.4375 107.628906 411.910156 C 106.988281 411.382812 106.375 410.828125 105.789062 410.242188 C 105.203125 409.65625 104.644531 409.042969 104.121094 408.402344 C 103.59375 407.761719 103.101562 407.097656 102.640625 406.40625 C 102.179688 405.71875 101.753906 405.007812 101.363281 404.277344 C 100.972656 403.542969 100.617188 402.796875 100.300781 402.03125 C 99.984375 401.265625 99.707031 400.484375 99.464844 399.691406 C 99.222656 398.898438 99.023438 398.09375 98.859375 397.28125 C 98.699219 396.46875 98.578125 395.648438 98.496094 394.824219 C 98.414062 394 98.375 393.171875 98.375 392.34375 C 98.375 391.515625 98.414062 390.6875 98.496094 389.863281 C 98.578125 389.039062 98.699219 388.21875 98.859375 387.40625 C 99.023438 386.59375 99.222656 385.789062 99.464844 384.996094 C 99.707031 384.203125 99.984375 383.421875 100.300781 382.65625 C 100.617188 381.890625 100.972656 381.144531 101.363281 380.410156 C 101.753906 379.679688 102.179688 378.96875 102.640625 378.28125 C 103.101562 377.589844 103.59375 376.925781 104.121094 376.285156 C 104.644531 375.644531 105.203125 375.03125 105.789062 374.445312 C 106.375 373.859375 106.988281 373.304688 107.628906 372.777344 C 108.269531 372.25 108.933594 371.757812 109.625 371.296875 C 110.3125 370.835938 111.023438 370.410156 111.753906 370.019531 C 112.484375 369.628906 113.234375 369.273438 114 368.957031 C 114.765625 368.640625 115.542969 368.363281 116.335938 368.121094 C 117.128906 367.878906 117.933594 367.679688 118.746094 367.519531 C 119.558594 367.355469 120.378906 367.234375 121.203125 367.152344 C 122.027344 367.070312 122.855469 367.03125 123.683594 367.03125 C 124.511719 367.03125 125.339844 367.070312 126.164062 367.152344 C 126.988281 367.234375 127.808594 367.355469 128.621094 367.519531 C 129.433594 367.679688 130.238281 367.878906 131.03125 368.121094 C 131.824219 368.363281 132.605469 368.640625 133.371094 368.957031 C 134.136719 369.273438 134.882812 369.628906 135.613281 370.019531 C 136.34375 370.410156 137.054688 370.835938 137.746094 371.296875 C 138.433594 371.757812 139.097656 372.25 139.738281 372.777344 C 140.378906 373.304688 140.992188 373.859375 141.582031 374.445312 C 142.167969 375.03125 142.722656 375.644531 143.25 376.285156 C 143.773438 376.925781 144.265625 377.589844 144.726562 378.28125 C 145.1875 378.96875 145.613281 379.679688 146.003906 380.410156 C 146.394531 381.144531 146.75 381.890625 147.066406 382.65625 C 147.382812 383.421875 147.664062 384.203125 147.902344 384.996094 C 148.144531 385.789062 148.34375 386.59375 148.507812 387.40625 C 148.667969 388.21875 148.789062 389.039062 148.871094 389.863281 C 148.953125 390.6875 148.992188 391.515625 148.992188 392.34375 Z M 148.992188 392.34375 " fill-opacity="1" fill-rule="nonzero"/><path fill="#fca265" d="M 210.316406 615.410156 L 148.992188 615.410156 C 148.992188 629.390625 137.660156 640.722656 123.683594 640.722656 C 109.707031 640.722656 98.375 629.390625 98.375 615.410156 L 37.046875 615.410156 C 29.855469 615.410156 24.03125 621.242188 24.03125 628.429688 L 24.03125 789.070312 C 24.03125 796.261719 29.855469 802.089844 37.046875 802.089844 L 166.804688 802.089844 L 223.339844 745.546875 L 223.339844 628.429688 C 223.339844 621.242188 217.507812 615.410156 210.316406 615.410156 Z M 210.316406 615.410156 " fill-opacity="1" fill-rule="nonzero"/><path fill="#f5c84c" d="M 148.992188 615.410156 C 148.992188 616.238281 148.953125 617.066406 148.871094 617.890625 C 148.789062 618.714844 148.667969 619.535156 148.507812 620.347656 C 148.34375 621.160156 148.144531 621.964844 147.902344 622.757812 C 147.664062 623.550781 147.382812 624.332031 147.066406 625.097656 C 146.75 625.863281 146.394531 626.609375 146.003906 627.34375 C 145.613281 628.074219 145.1875 628.785156 144.726562 629.472656 C 144.265625 630.164062 143.773438 630.828125 143.25 631.46875 C 142.722656 632.109375 142.167969 632.722656 141.582031 633.308594 C 140.992188 633.894531 140.378906 634.449219 139.738281 634.976562 C 139.097656 635.503906 138.433594 635.996094 137.746094 636.457031 C 137.054688 636.917969 136.34375 637.34375 135.613281 637.734375 C 134.882812 638.125 134.136719 638.480469 133.371094 638.796875 C 132.605469 639.113281 131.824219 639.390625 131.03125 639.632812 C 130.238281 639.875 129.433594 640.074219 128.621094 640.234375 C 127.808594 640.398438 126.988281 640.519531 126.164062 640.601562 C 125.339844 640.683594 124.511719 640.722656 123.683594 640.722656 C 122.855469 640.722656 122.027344 640.683594 121.203125 640.601562 C 120.378906 640.519531 119.558594 640.398438 118.746094 640.234375 C 117.933594 640.074219 117.128906 639.875 116.335938 639.632812 C 115.542969 639.390625 114.765625 639.113281 114 638.796875 C 113.234375 638.480469 112.484375 638.125 111.753906 637.734375 C 111.023438 637.34375 110.3125 636.917969 109.625 636.457031 C 108.933594 635.996094 108.269531 635.503906 107.628906 634.976562 C 106.988281 634.449219 106.375 633.894531 105.789062 633.308594 C 105.203125 632.722656 104.644531 632.109375 104.121094 631.46875 C 103.59375 630.828125 103.101562 630.164062 102.640625 629.472656 C 102.179688 628.785156 101.753906 628.074219 101.363281 627.34375 C 100.972656 626.609375 100.617188 625.863281 100.300781 625.097656 C 99.984375 624.332031 99.707031 623.550781 99.464844 622.757812 C 99.222656 621.964844 99.023438 621.160156 98.859375 620.347656 C 98.699219 619.535156 98.578125 618.714844 98.496094 617.890625 C 98.414062 617.066406 98.375 616.238281 98.375 615.410156 C 98.375 614.582031 98.414062 613.753906 98.496094 612.929688 C 98.578125 612.105469 98.699219 611.285156 98.859375 610.472656 C 99.023438 609.660156 99.222656 608.855469 99.464844 608.0625 C 99.707031 607.269531 99.984375 606.488281 100.300781 605.722656 C 100.617188 604.957031 100.972656 604.210938 101.363281 603.476562 C 101.753906 602.746094 102.179688 602.035156 102.640625 601.347656 C 103.101562 600.65625 103.59375 599.992188 104.121094 599.351562 C 104.644531 598.710938 105.203125 598.097656 105.789062 597.511719 C 106.375 596.925781 106.988281 596.371094 107.628906 595.84375 C 108.269531 595.316406 108.933594 594.824219 109.625 594.363281 C 110.3125 593.902344 111.023438 593.476562 111.753906 593.085938 C 112.484375 592.695312 113.234375 592.339844 114 592.023438 C 114.765625 591.707031 115.542969 591.429688 116.335938 591.1875 C 117.128906 590.945312 117.933594 590.746094 118.746094 590.585938 C 119.558594 590.421875 120.378906 590.300781 121.203125 590.21875 C 122.027344 590.136719 122.855469 590.097656 123.683594 590.097656 C 124.511719 590.097656 125.339844 590.136719 126.164062 590.21875 C 126.988281 590.300781 127.808594 590.421875 128.621094 590.582031 C 129.433594 590.746094 130.238281 590.945312 131.03125 591.1875 C 131.824219 591.429688 132.605469 591.707031 133.371094 592.023438 C 134.136719 592.339844 134.882812 592.695312 135.613281 593.085938 C 136.34375 593.476562 137.054688 593.902344 137.746094 594.363281 C 138.433594 594.824219 139.097656 595.316406 139.738281 595.84375 C 140.378906 596.371094 140.992188 596.925781 141.582031 597.511719 C 142.167969 598.097656 142.722656 598.710938 143.25 599.351562 C 143.773438 599.992188 144.265625 600.65625 144.726562 601.347656 C 145.1875 602.035156 145.613281 602.746094 146.003906 603.476562 C 146.394531 604.210938 146.75 604.957031 147.066406 605.722656 C 147.382812 606.488281 147.664062 607.269531 147.902344 608.0625 C 148.144531 608.855469 148.34375 609.660156 148.507812 610.472656 C 148.667969 611.285156 148.789062 612.105469 148.871094 612.929688 C 148.953125 613.753906 148.992188 614.582031 148.992188 615.410156 Z M 148.992188 615.410156 " fill-opacity="1" fill-rule="nonzero"/><path fill="#fca265" d="M 214.417969 45.878906 L 33.066406 45.878906 C 28.105469 45.878906 24.085938 49.902344 24.085938 54.859375 L 24.085938 87.519531 C 24.085938 92.480469 28.109375 96.5 33.066406 96.5 L 214.417969 96.5 C 219.378906 96.5 223.394531 92.480469 223.394531 87.519531 L 223.394531 54.859375 C 223.394531 49.902344 219.375 45.878906 214.417969 45.878906 Z M 214.417969 45.878906 " fill-opacity="1" fill-rule="nonzero"/><path fill="#f98fa6" d="M 463.40625 169.277344 L 402.082031 169.277344 C 402.082031 183.257812 390.75 194.589844 376.773438 194.589844 C 362.792969 194.589844 351.460938 183.257812 351.460938 169.277344 L 290.136719 169.277344 C 282.949219 169.277344 277.121094 175.109375 277.121094 182.296875 L 277.121094 342.9375 C 277.121094 350.128906 282.949219 355.957031 290.136719 355.957031 L 419.894531 355.957031 L 476.429688 299.414062 L 476.429688 182.296875 C 476.429688 175.109375 470.597656 169.277344 463.40625 169.277344 Z M 463.40625 169.277344 " fill-opacity="1" fill-rule="nonzero"/><path fill="#f5c84c" d="M 402.082031 169.277344 C 402.082031 170.105469 402.042969 170.933594 401.960938 171.757812 C 401.878906 172.582031 401.757812 173.402344 401.597656 174.214844 C 401.4375 175.027344 401.234375 175.832031 400.992188 176.625 C 400.753906 177.417969 400.472656 178.199219 400.15625 178.964844 C 399.839844 179.730469 399.484375 180.476562 399.09375 181.210938 C 398.703125 181.941406 398.277344 182.652344 397.820312 183.339844 C 397.359375 184.03125 396.863281 184.695312 396.339844 185.335938 C 395.8125 185.976562 395.257812 186.589844 394.671875 187.175781 C 394.085938 187.761719 393.472656 188.316406 392.832031 188.84375 C 392.191406 189.371094 391.523438 189.863281 390.835938 190.324219 C 390.144531 190.785156 389.4375 191.210938 388.707031 191.601562 C 387.972656 191.992188 387.226562 192.347656 386.460938 192.664062 C 385.695312 192.980469 384.914062 193.257812 384.121094 193.5 C 383.328125 193.742188 382.523438 193.941406 381.710938 194.101562 C 380.898438 194.265625 380.082031 194.386719 379.253906 194.46875 C 378.429688 194.550781 377.605469 194.589844 376.773438 194.589844 C 375.945312 194.589844 375.117188 194.550781 374.292969 194.46875 C 373.46875 194.386719 372.648438 194.265625 371.835938 194.101562 C 371.023438 193.941406 370.222656 193.742188 369.429688 193.5 C 368.632812 193.257812 367.855469 192.980469 367.089844 192.664062 C 366.324219 192.347656 365.574219 191.992188 364.84375 191.601562 C 364.113281 191.210938 363.402344 190.785156 362.714844 190.324219 C 362.023438 189.863281 361.359375 189.371094 360.71875 188.84375 C 360.078125 188.316406 359.464844 187.761719 358.878906 187.175781 C 358.292969 186.589844 357.738281 185.976562 357.210938 185.335938 C 356.683594 184.695312 356.191406 184.03125 355.730469 183.339844 C 355.269531 182.652344 354.84375 181.941406 354.453125 181.210938 C 354.0625 180.476562 353.710938 179.730469 353.390625 178.964844 C 353.074219 178.199219 352.796875 177.417969 352.554688 176.625 C 352.316406 175.832031 352.113281 175.027344 351.953125 174.214844 C 351.789062 173.402344 351.667969 172.582031 351.585938 171.757812 C 351.507812 170.933594 351.464844 170.105469 351.464844 169.277344 C 351.464844 168.449219 351.507812 167.621094 351.585938 166.796875 C 351.667969 165.972656 351.789062 165.152344 351.953125 164.339844 C 352.113281 163.527344 352.316406 162.722656 352.554688 161.929688 C 352.796875 161.136719 353.074219 160.355469 353.390625 159.589844 C 353.710938 158.824219 354.0625 158.078125 354.453125 157.34375 C 354.84375 156.613281 355.269531 155.902344 355.730469 155.214844 C 356.191406 154.523438 356.683594 153.859375 357.210938 153.21875 C 357.738281 152.578125 358.292969 151.964844 358.878906 151.378906 C 359.464844 150.792969 360.078125 150.238281 360.71875 149.710938 C 361.359375 149.183594 362.023438 148.691406 362.714844 148.230469 C 363.402344 147.769531 364.113281 147.34375 364.84375 146.953125 C 365.574219 146.5625 366.324219 146.207031 367.089844 145.890625 C 367.855469 145.574219 368.632812 145.296875 369.429688 145.054688 C 370.222656 144.8125 371.023438 144.613281 371.835938 144.453125 C 372.648438 144.289062 373.46875 144.167969 374.292969 144.085938 C 375.117188 144.003906 375.945312 143.964844 376.773438 143.964844 C 377.605469 143.964844 378.429688 144.003906 379.253906 144.085938 C 380.082031 144.167969 380.898438 144.289062 381.710938 144.453125 C 382.523438 144.613281 383.328125 144.8125 384.121094 145.054688 C 384.914062 145.296875 385.695312 145.574219 386.460938 145.890625 C 387.226562 146.207031 387.972656 146.5625 388.707031 146.953125 C 389.4375 147.34375 390.144531 147.769531 390.835938 148.230469 C 391.523438 148.691406 392.191406 149.183594 392.832031 149.710938 C 393.472656 150.238281 394.085938 150.792969 394.671875 151.378906 C 395.257812 151.964844 395.8125 152.578125 396.339844 153.21875 C 396.863281 153.859375 397.359375 154.523438 397.820312 155.214844 C 398.277344 155.902344 398.703125 156.613281 399.09375 157.34375 C 399.484375 158.078125 399.839844 158.824219 400.15625 159.589844 C 400.472656 160.355469 400.753906 161.136719 400.992188 161.929688 C 401.234375 162.722656 401.4375 163.527344 401.597656 164.339844 C 401.757812 165.152344 401.878906 165.972656 401.960938 166.796875 C 402.042969 167.621094 402.082031 168.449219 402.082031 169.277344 Z M 402.082031 169.277344 " fill-opacity="1" fill-rule="nonzero"/><path fill="#f98fa6" d="M 463.40625 392.34375 L 402.082031 392.34375 C 402.082031 406.324219 390.75 417.65625 376.773438 417.65625 C 362.792969 417.65625 351.460938 406.324219 351.460938 392.34375 L 290.136719 392.34375 C 282.949219 392.34375 277.121094 398.175781 277.121094 405.363281 L 277.121094 566.003906 C 277.121094 573.195312 282.949219 579.023438 290.136719 579.023438 L 419.894531 579.023438 L 476.429688 522.480469 L 476.429688 405.363281 C 476.429688 398.175781 470.597656 392.34375 463.40625 392.34375 Z M 463.40625 392.34375 " fill-opacity="1" fill-rule="nonzero"/><path fill="#f5c84c" d="M 402.082031 392.34375 C 402.082031 393.171875 402.042969 394 401.960938 394.824219 C 401.878906 395.648438 401.757812 396.46875 401.597656 397.28125 C 401.4375 398.09375 401.234375 398.898438 400.992188 399.691406 C 400.753906 400.484375 400.472656 401.265625 400.15625 402.03125 C 399.839844 402.796875 399.484375 403.542969 399.09375 404.277344 C 398.703125 405.007812 398.277344 405.71875 397.820312 406.40625 C 397.359375 407.097656 396.863281 407.761719 396.339844 408.402344 C 395.8125 409.042969 395.257812 409.65625 394.671875 410.242188 C 394.085938 410.828125 393.472656 411.382812 392.832031 411.910156 C 392.191406 412.4375 391.523438 412.929688 390.835938 413.390625 C 390.144531 413.851562 389.4375 414.277344 388.707031 414.667969 C 387.972656 415.058594 387.226562 415.414062 386.460938 415.730469 C 385.695312 416.046875 384.914062 416.324219 384.121094 416.566406 C 383.328125 416.808594 382.523438 417.007812 381.710938 417.167969 C 380.898438 417.332031 380.082031 417.453125 379.253906 417.535156 C 378.429688 417.617188 377.605469 417.65625 376.773438 417.65625 C 375.945312 417.65625 375.117188 417.617188 374.292969 417.535156 C 373.46875 417.453125 372.648438 417.332031 371.835938 417.167969 C 371.023438 417.007812 370.222656 416.808594 369.429688 416.566406 C 368.632812 416.324219 367.855469 416.046875 367.089844 415.730469 C 366.324219 415.414062 365.574219 415.058594 364.84375 414.667969 C 364.113281 414.277344 363.402344 413.851562 362.714844 413.390625 C 362.023438 412.929688 361.359375 412.4375 360.71875 411.910156 C 360.078125 411.382812 359.464844 410.828125 358.878906 410.242188 C 358.292969 409.65625 357.738281 409.042969 357.210938 408.402344 C 356.683594 407.761719 356.191406 407.097656 355.730469 406.40625 C 355.269531 405.71875 354.84375 405.007812 354.453125 404.277344 C 354.0625 403.542969 353.710938 402.796875 353.390625 402.03125 C 353.074219 401.265625 352.796875 400.484375 352.554688 399.691406 C 352.316406 398.898438 352.113281 398.09375 351.953125 397.28125 C 351.789062 396.46875 351.667969 395.648438 351.585938 394.824219 C 351.507812 394 351.464844 393.171875 351.464844 392.34375 C 351.464844 391.515625 351.507812 390.6875 351.585938 389.863281 C 351.667969 389.039062 351.789062 388.21875 351.953125 387.40625 C 352.113281 386.59375 352.316406 385.789062 352.554688 384.996094 C 352.796875 384.203125 353.074219 383.421875 353.390625 382.65625 C 353.710938 381.890625 354.0625 381.144531 354.453125 380.410156 C 354.84375 379.679688 355.269531 378.96875 355.730469 378.28125 C 356.191406 377.589844 356.683594 376.925781 357.210938 376.285156 C 357.738281 375.644531 358.292969 375.03125 358.878906 374.445312 C 359.464844 373.859375 360.078125 373.304688 360.71875 372.777344 C 361.359375 372.25 362.023438 371.757812 362.714844 371.296875 C 363.402344 370.835938 364.113281 370.410156 364.84375 370.019531 C 365.574219 369.628906 366.324219 369.273438 367.089844 368.957031 C 367.855469 368.640625 368.632812 368.363281 369.429688 368.121094 C 370.222656 367.878906 371.023438 367.679688 371.835938 367.519531 C 372.648438 367.355469 373.46875 367.234375 374.292969 367.152344 C 375.117188 367.070312 375.945312 367.03125 376.773438 367.03125 C 377.605469 367.03125 378.429688 367.070312 379.253906 367.152344 C 380.082031 367.234375 380.898438 367.355469 381.710938 367.519531 C 382.523438 367.679688 383.328125 367.878906 384.121094 368.121094 C 384.914062 368.363281 385.695312 368.640625 386.460938 368.957031 C 387.226562 369.273438 387.972656 369.628906 388.707031 370.019531 C 389.4375 370.410156 390.144531 370.835938 390.835938 371.296875 C 391.523438 371.757812 392.191406 372.25 392.832031 372.777344 C 393.472656 373.304688 394.085938 373.859375 394.671875 374.445312 C 395.257812 375.03125 395.8125 375.644531 396.339844 376.285156 C 396.863281 376.925781 397.359375 377.589844 397.820312 378.28125 C 398.277344 378.96875 398.703125 379.679688 399.09375 380.410156 C 399.484375 381.144531 399.839844 381.890625 400.15625 382.65625 C 400.472656 383.421875 400.753906 384.203125 400.992188 384.996094 C 401.234375 385.789062 401.4375 386.59375 401.597656 387.40625 C 401.757812 388.21875 401.878906 389.039062 401.960938 389.863281 C 402.042969 390.6875 402.082031 391.515625 402.082031 392.34375 Z M 402.082031 392.34375 " fill-opacity="1" fill-rule="nonzero"/><path fill="#fc657e" d="M 467.507812 45.878906 L 286.15625 45.878906 C 281.195312 45.878906 277.175781 49.902344 277.175781 54.859375 L 277.175781 87.519531 C 277.175781 92.480469 281.199219 96.5 286.15625 96.5 L 467.507812 96.5 C 472.46875 96.5 476.484375 92.480469 476.484375 87.519531 L 476.484375 54.859375 C 476.484375 49.902344 472.464844 45.878906 467.507812 45.878906 Z M 467.507812 45.878906 " fill-opacity="1" fill-rule="nonzero"/><path fill="#b2e26d" d="M 716.5 169.277344 L 655.171875 169.277344 C 655.171875 183.257812 643.839844 194.589844 629.863281 194.589844 C 615.886719 194.589844 604.554688 183.257812 604.554688 169.277344 L 543.226562 169.277344 C 536.035156 169.277344 530.207031 175.109375 530.207031 182.296875 L 530.207031 342.9375 C 530.207031 350.128906 536.035156 355.957031 543.226562 355.957031 L 672.984375 355.957031 L 729.515625 299.414062 L 729.515625 182.296875 C 729.519531 175.109375 723.6875 169.277344 716.5 169.277344 Z M 716.5 169.277344 " fill-opacity="1" fill-rule="nonzero"/><path fill="#f5c84c" d="M 655.175781 169.277344 C 655.175781 170.105469 655.132812 170.933594 655.050781 171.757812 C 654.972656 172.582031 654.851562 173.402344 654.6875 174.214844 C 654.527344 175.027344 654.324219 175.832031 654.085938 176.625 C 653.84375 177.417969 653.566406 178.199219 653.246094 178.964844 C 652.929688 179.730469 652.578125 180.476562 652.1875 181.210938 C 651.796875 181.941406 651.371094 182.652344 650.910156 183.339844 C 650.449219 184.03125 649.957031 184.695312 649.429688 185.335938 C 648.902344 185.976562 648.347656 186.589844 647.761719 187.175781 C 647.175781 187.761719 646.5625 188.316406 645.921875 188.84375 C 645.28125 189.371094 644.617188 189.863281 643.925781 190.324219 C 643.238281 190.785156 642.527344 191.210938 641.796875 191.601562 C 641.066406 191.992188 640.316406 192.347656 639.550781 192.664062 C 638.785156 192.980469 638.003906 193.257812 637.210938 193.5 C 636.417969 193.742188 635.617188 193.941406 634.804688 194.101562 C 633.988281 194.265625 633.171875 194.386719 632.347656 194.46875 C 631.519531 194.550781 630.695312 194.589844 629.867188 194.589844 C 629.035156 194.589844 628.210938 194.550781 627.382812 194.46875 C 626.558594 194.386719 625.742188 194.265625 624.929688 194.101562 C 624.113281 193.941406 623.3125 193.742188 622.519531 193.5 C 621.726562 193.257812 620.945312 192.980469 620.179688 192.664062 C 619.414062 192.347656 618.664062 191.992188 617.933594 191.601562 C 617.203125 191.210938 616.492188 190.785156 615.804688 190.324219 C 615.113281 189.863281 614.449219 189.371094 613.808594 188.84375 C 613.167969 188.316406 612.554688 187.761719 611.96875 187.175781 C 611.382812 186.589844 610.828125 185.976562 610.300781 185.335938 C 609.773438 184.695312 609.28125 184.03125 608.820312 183.339844 C 608.359375 182.652344 607.9375 181.941406 607.542969 181.210938 C 607.152344 180.476562 606.800781 179.730469 606.484375 178.964844 C 606.164062 178.199219 605.886719 177.417969 605.644531 176.625 C 605.40625 175.832031 605.203125 175.027344 605.042969 174.214844 C 604.882812 173.402344 604.757812 172.582031 604.679688 171.757812 C 604.597656 170.933594 604.554688 170.105469 604.554688 169.277344 C 604.554688 168.449219 604.597656 167.621094 604.679688 166.796875 C 604.757812 165.972656 604.882812 165.152344 605.042969 164.339844 C 605.203125 163.527344 605.40625 162.722656 605.644531 161.929688 C 605.886719 161.136719 606.164062 160.355469 606.484375 159.589844 C 606.800781 158.824219 607.152344 158.078125 607.542969 157.34375 C 607.9375 156.613281 608.359375 155.902344 608.820312 155.214844 C 609.28125 154.523438 609.773438 153.859375 610.300781 153.21875 C 610.828125 152.578125 611.382812 151.964844 611.96875 151.378906 C 612.554688 150.792969 613.167969 150.238281 613.808594 149.710938 C 614.449219 149.183594 615.113281 148.691406 615.804688 148.230469 C 616.492188 147.769531 617.203125 147.34375 617.933594 146.953125 C 618.664062 146.5625 619.414062 146.207031 620.179688 145.890625 C 620.945312 145.574219 621.726562 145.296875 622.519531 145.054688 C 623.3125 144.8125 624.113281 144.613281 624.929688 144.453125 C 625.742188 144.289062 626.558594 144.167969 627.382812 144.085938 C 628.210938 144.003906 629.035156 143.964844 629.867188 143.964844 C 630.695312 143.964844 631.519531 144.003906 632.347656 144.085938 C 633.171875 144.167969 633.988281 144.289062 634.804688 144.453125 C 635.617188 144.613281 636.417969 144.8125 637.210938 145.054688 C 638.003906 145.296875 638.785156 145.574219 639.550781 145.890625 C 640.316406 146.207031 641.066406 146.5625 641.796875 146.953125 C 642.527344 147.34375 643.238281 147.769531 643.925781 148.230469 C 644.617188 148.691406 645.28125 149.183594 645.921875 149.710938 C 646.5625 150.238281 647.175781 150.792969 647.761719 151.378906 C 648.347656 151.964844 648.902344 152.578125 649.429688 153.21875 C 649.957031 153.859375 650.449219 154.523438 650.910156 155.214844 C 651.371094 155.902344 651.796875 156.613281 652.1875 157.34375 C 652.578125 158.078125 652.929688 158.824219 653.246094 159.589844 C 653.566406 160.355469 653.84375 161.136719 654.085938 161.929688 C 654.324219 162.722656 654.527344 163.527344 654.6875 164.339844 C 654.851562 165.152344 654.972656 165.972656 655.050781 166.796875 C 655.132812 167.621094 655.175781 168.449219 655.175781 169.277344 Z M 655.175781 169.277344 " fill-opacity="1" fill-rule="nonzero"/><path fill="#b2e26d" d="M 716.5 392.34375 L 655.171875 392.34375 C 655.171875 406.324219 643.839844 417.65625 629.863281 417.65625 C 615.886719 417.65625 604.554688 406.324219 604.554688 392.34375 L 543.226562 392.34375 C 536.035156 392.34375 530.207031 398.175781 530.207031 405.363281 L 530.207031 566.003906 C 530.207031 573.195312 536.035156 579.023438 543.226562 579.023438 L 672.984375 579.023438 L 729.515625 522.480469 L 729.515625 405.363281 C 729.519531 398.175781 723.6875 392.34375 716.5 392.34375 Z M 716.5 392.34375 " fill-opacity="1" fill-rule="nonzero"/><path fill="#f5c84c" d="M 655.175781 392.34375 C 655.175781 393.171875 655.132812 394 655.050781 394.824219 C 654.972656 395.648438 654.851562 396.46875 654.6875 397.28125 C 654.527344 398.09375 654.324219 398.898438 654.085938 399.691406 C 653.84375 400.484375 653.566406 401.265625 653.246094 402.03125 C 652.929688 402.796875 652.578125 403.542969 652.1875 404.277344 C 651.796875 405.007812 651.371094 405.71875 650.910156 406.40625 C 650.449219 407.097656 649.957031 407.761719 649.429688 408.402344 C 648.902344 409.042969 648.347656 409.65625 647.761719 410.242188 C 647.175781 410.828125 646.5625 411.382812 645.921875 411.910156 C 645.28125 412.4375 644.617188 412.929688 643.925781 413.390625 C 643.238281 413.851562 642.527344 414.277344 641.796875 414.667969 C 641.066406 415.058594 640.316406 415.414062 639.550781 415.730469 C 638.785156 416.046875 638.003906 416.324219 637.210938 416.566406 C 636.417969 416.808594 635.617188 417.007812 634.804688 417.167969 C 633.988281 417.332031 633.171875 417.453125 632.347656 417.535156 C 631.519531 417.617188 630.695312 417.65625 629.867188 417.65625 C 629.035156 417.65625 628.210938 417.617188 627.382812 417.535156 C 626.558594 417.453125 625.742188 417.332031 624.929688 417.167969 C 624.113281 417.007812 623.3125 416.808594 622.519531 416.566406 C 621.726562 416.324219 620.945312 416.046875 620.179688 415.730469 C 619.414062 415.414062 618.664062 415.058594 617.933594 414.667969 C 617.203125 414.277344 616.492188 413.851562 615.804688 413.390625 C 615.113281 412.929688 614.449219 412.4375 613.808594 411.910156 C 613.167969 411.382812 612.554688 410.828125 611.96875 410.242188 C 611.382812 409.65625 610.828125 409.042969 610.300781 408.402344 C 609.773438 407.761719 609.28125 407.097656 608.820312 406.40625 C 608.359375 405.71875 607.9375 405.007812 607.542969 404.277344 C 607.152344 403.542969 606.800781 402.796875 606.484375 402.03125 C 606.164062 401.265625 605.886719 400.484375 605.644531 399.691406 C 605.40625 398.898438 605.203125 398.09375 605.042969 397.28125 C 604.882812 396.46875 604.757812 395.648438 604.679688 394.824219 C 604.597656 394 604.554688 393.171875 604.554688 392.34375 C 604.554688 391.515625 604.597656 390.6875 604.679688 389.863281 C 604.757812 389.039062 604.882812 388.21875 605.042969 387.40625 C 605.203125 386.59375 605.40625 385.789062 605.644531 384.996094 C 605.886719 384.203125 606.164062 383.421875 606.484375 382.65625 C 606.800781 381.890625 607.152344 381.144531 607.542969 380.410156 C 607.9375 379.679688 608.359375 378.96875 608.820312 378.28125 C 609.28125 377.589844 609.773438 376.925781 610.300781 376.285156 C 610.828125 375.644531 611.382812 375.03125 611.96875 374.445312 C 612.554688 373.859375 613.167969 373.304688 613.808594 372.777344 C 614.449219 372.25 615.113281 371.757812 615.804688 371.296875 C 616.492188 370.835938 617.203125 370.410156 617.933594 370.019531 C 618.664062 369.628906 619.414062 369.273438 620.179688 368.957031 C 620.945312 368.640625 621.726562 368.363281 622.519531 368.121094 C 623.3125 367.878906 624.113281 367.679688 624.929688 367.519531 C 625.742188 367.355469 626.558594 367.234375 627.382812 367.152344 C 628.210938 367.070312 629.035156 367.03125 629.867188 367.03125 C 630.695312 367.03125 631.519531 367.070312 632.347656 367.152344 C 633.171875 367.234375 633.988281 367.355469 634.804688 367.519531 C 635.617188 367.679688 636.417969 367.878906 637.210938 368.121094 C 638.003906 368.363281 638.785156 368.640625 639.550781 368.957031 C 640.316406 369.273438 641.066406 369.628906 641.796875 370.019531 C 642.527344 370.410156 643.238281 370.835938 643.925781 371.296875 C 644.617188 371.757812 645.28125 372.25 645.921875 372.777344 C 646.5625 373.304688 647.175781 373.859375 647.761719 374.445312 C 648.347656 375.03125 648.902344 375.644531 649.429688 376.285156 C 649.957031 376.925781 650.449219 377.589844 650.910156 378.28125 C 651.371094 378.96875 651.796875 379.679688 652.1875 380.410156 C 652.578125 381.144531 652.929688 381.890625 653.246094 382.65625 C 653.566406 383.421875 653.84375 384.203125 654.085938 384.996094 C 654.324219 385.789062 654.527344 386.59375 654.6875 387.40625 C 654.851562 388.21875 654.972656 389.039062 655.050781 389.863281 C 655.132812 390.6875 655.175781 391.515625 655.175781 392.34375 Z M 655.175781 392.34375 " fill-opacity="1" fill-rule="nonzero"/><path fill="#b2e26d" d="M 716.5 615.410156 L 655.171875 615.410156 C 655.171875 629.390625 643.839844 640.722656 629.863281 640.722656 C 615.886719 640.722656 604.554688 629.390625 604.554688 615.410156 L 543.226562 615.410156 C 536.035156 615.410156 530.207031 621.242188 530.207031 628.429688 L 530.207031 789.070312 C 530.207031 796.261719 536.035156 802.089844 543.226562 802.089844 L 672.984375 802.089844 L 729.515625 745.546875 L 729.515625 628.429688 C 729.519531 621.242188 723.6875 615.410156 716.5 615.410156 Z M 716.5 615.410156 " fill-opacity="1" fill-rule="nonzero"/><path fill="#f5c84c" d="M 655.175781 615.410156 C 655.175781 616.238281 655.132812 617.066406 655.050781 617.890625 C 654.972656 618.714844 654.851562 619.535156 654.6875 620.347656 C 654.527344 621.160156 654.324219 621.964844 654.085938 622.757812 C 653.84375 623.550781 653.566406 624.332031 653.246094 625.097656 C 652.929688 625.863281 652.578125 626.609375 652.1875 627.34375 C 651.796875 628.074219 651.371094 628.785156 650.910156 629.472656 C 650.449219 630.164062 649.957031 630.828125 649.429688 631.46875 C 648.902344 632.109375 648.347656 632.722656 647.761719 633.308594 C 647.175781 633.894531 646.5625 634.449219 645.921875 634.976562 C 645.28125 635.503906 644.617188 635.996094 643.925781 636.457031 C 643.238281 636.917969 642.527344 637.34375 641.796875 637.734375 C 641.066406 638.125 640.316406 638.480469 639.550781 638.796875 C 638.785156 639.113281 638.003906 639.390625 637.210938 639.632812 C 636.417969 639.875 635.617188 640.074219 634.804688 640.234375 C 633.988281 640.398438 633.171875 640.519531 632.347656 640.601562 C 631.519531 640.683594 630.695312 640.722656 629.867188 640.722656 C 629.035156 640.722656 628.210938 640.683594 627.382812 640.601562 C 626.558594 640.519531 625.742188 640.398438 624.929688 640.234375 C 624.113281 640.074219 623.3125 639.875 622.519531 639.632812 C 621.726562 639.390625 620.945312 639.113281 620.179688 638.796875 C 619.414062 638.480469 618.664062 638.125 617.933594 637.734375 C 617.203125 637.34375 616.492188 636.917969 615.804688 636.457031 C 615.113281 635.996094 614.449219 635.503906 613.808594 634.976562 C 613.167969 634.449219 612.554688 633.894531 611.96875 633.308594 C 611.382812 632.722656 610.828125 632.109375 610.300781 631.46875 C 609.773438 630.828125 609.28125 630.164062 608.820312 629.472656 C 608.359375 628.785156 607.9375 628.074219 607.542969 627.34375 C 607.152344 626.609375 606.800781 625.863281 606.484375 625.097656 C 606.164062 624.332031 605.886719 623.550781 605.644531 622.757812 C 605.40625 621.964844 605.203125 621.160156 605.042969 620.347656 C 604.882812 619.535156 604.757812 618.714844 604.679688 617.890625 C 604.597656 617.066406 604.554688 616.238281 604.554688 615.410156 C 604.554688 614.582031 604.597656 613.753906 604.679688 612.929688 C 604.757812 612.105469 604.882812 611.285156 605.042969 610.472656 C 605.203125 609.660156 605.40625 608.855469 605.644531 608.0625 C 605.886719 607.269531 606.164062 606.488281 606.484375 605.722656 C 606.800781 604.957031 607.152344 604.210938 607.542969 603.476562 C 607.9375 602.746094 608.359375 602.035156 608.820312 601.347656 C 609.28125 600.65625 609.773438 599.992188 610.300781 599.351562 C 610.828125 598.710938 611.382812 598.097656 611.96875 597.511719 C 612.554688 596.925781 613.167969 596.371094 613.808594 595.84375 C 614.449219 595.316406 615.113281 594.824219 615.804688 594.363281 C 616.492188 593.902344 617.203125 593.476562 617.933594 593.085938 C 618.664062 592.695312 619.414062 592.339844 620.179688 592.023438 C 620.945312 591.707031 621.726562 591.429688 622.519531 591.1875 C 623.3125 590.945312 624.113281 590.746094 624.929688 590.585938 C 625.742188 590.421875 626.558594 590.300781 627.382812 590.21875 C 628.210938 590.136719 629.035156 590.097656 629.867188 590.097656 C 630.695312 590.097656 631.519531 590.136719 632.347656 590.21875 C 633.171875 590.300781 633.988281 590.421875 634.804688 590.582031 C 635.617188 590.746094 636.417969 590.945312 637.210938 591.1875 C 638.003906 591.429688 638.785156 591.707031 639.550781 592.023438 C 640.316406 592.339844 641.066406 592.695312 641.796875 593.085938 C 642.527344 593.476562 643.238281 593.902344 643.925781 594.363281 C 644.617188 594.824219 645.28125 595.316406 645.921875 595.84375 C 646.5625 596.371094 647.175781 596.925781 647.761719 597.511719 C 648.347656 598.097656 648.902344 598.710938 649.429688 599.351562 C 649.957031 599.992188 650.449219 600.65625 650.910156 601.347656 C 651.371094 602.035156 651.796875 602.746094 652.1875 603.476562 C 652.578125 604.210938 652.929688 604.957031 653.246094 605.722656 C 653.566406 606.488281 653.84375 607.269531 654.085938 608.0625 C 654.324219 608.855469 654.527344 609.660156 654.6875 610.472656 C 654.851562 611.285156 654.972656 612.105469 655.050781 612.929688 C 655.132812 613.753906 655.175781 614.582031 655.175781 615.410156 Z M 655.175781 615.410156 " fill-opacity="1" fill-rule="nonzero"/><path fill="#b2e26d" d="M 720.597656 45.878906 L 539.246094 45.878906 C 534.285156 45.878906 530.269531 49.902344 530.269531 54.859375 L 530.269531 87.519531 C 530.269531 92.480469 534.289062 96.5 539.246094 96.5 L 720.597656 96.5 C 725.558594 96.5 729.578125 92.480469 729.578125 87.519531 L 729.578125 54.859375 C 729.578125 49.902344 725.554688 45.878906 720.597656 45.878906 Z M 720.597656 45.878906 " fill-opacity="1" fill-rule="nonzero"/><path fill="#dae6f1" d="M 672.421875 227.398438 C 666.078125 221.058594 655.796875 221.058594 649.453125 227.398438 L 623.394531 253.460938 L 610.332031 240.394531 C 603.988281 234.054688 593.707031 234.054688 587.363281 240.394531 C 581.023438 246.738281 581.023438 257.023438 587.363281 263.367188 L 611.910156 287.917969 C 615.085938 291.085938 619.238281 292.671875 623.394531 292.671875 C 627.554688 292.671875 631.710938 291.085938 634.878906 287.917969 L 672.421875 250.371094 C 678.765625 244.027344 678.765625 233.742188 672.421875 227.398438 Z M 672.421875 227.398438 " fill-opacity="1" fill-rule="nonzero"/><path fill="#dae6f1" d="M 672.421875 450.464844 C 666.078125 444.125 655.796875 444.125 649.453125 450.464844 L 623.394531 476.527344 L 610.332031 463.460938 C 603.988281 457.121094 593.707031 457.121094 587.363281 463.460938 C 581.023438 469.804688 581.023438 480.089844 587.363281 486.433594 L 611.910156 510.984375 C 615.085938 514.152344 619.238281 515.738281 623.394531 515.738281 C 627.554688 515.738281 631.710938 514.152344 634.878906 510.984375 L 672.421875 473.433594 C 678.765625 467.09375 678.765625 456.808594 672.421875 450.464844 Z M 672.421875 450.464844 " fill-opacity="1" fill-rule="nonzero"/><path fill="#dae6f1" d="M 672.421875 673.53125 C 666.078125 667.191406 655.796875 667.191406 649.453125 673.53125 L 623.394531 699.59375 L 610.332031 686.527344 C 603.988281 680.1875 593.707031 680.1875 587.363281 686.527344 C 581.023438 692.871094 581.023438 703.15625 587.363281 709.5 L 611.910156 734.050781 C 615.085938 737.21875 619.238281 738.804688 623.394531 738.804688 C 627.554688 738.804688 631.710938 737.21875 634.878906 734.050781 L 672.421875 696.5 C 678.765625 690.160156 678.765625 679.875 672.421875 673.53125 Z M 672.421875 673.53125 " fill-opacity="1" fill-rule="nonzero"/><path fill="#fc8c48" d="M 179.824219 299.414062 C 172.632812 299.414062 166.804688 305.246094 166.804688 312.433594 L 166.804688 355.957031 L 223.339844 299.414062 Z M 179.824219 299.414062 " fill-opacity="1" fill-rule="nonzero"/><path fill="#fc8c48" d="M 179.824219 522.480469 C 172.632812 522.480469 166.804688 528.3125 166.804688 535.5 L 166.804688 579.023438 L 223.339844 522.480469 Z M 179.824219 522.480469 " fill-opacity="1" fill-rule="nonzero"/><path fill="#fc8c48" d="M 179.824219 745.546875 C 172.632812 745.546875 166.804688 751.378906 166.804688 758.566406 L 166.804688 802.089844 L 223.339844 745.546875 Z M 179.824219 745.546875 " fill-opacity="1" fill-rule="nonzero"/><path fill="#fc657e" d="M 432.914062 299.414062 C 425.722656 299.414062 419.894531 305.246094 419.894531 312.433594 L 419.894531 355.957031 L 476.429688 299.414062 Z M 432.914062 299.414062 " fill-opacity="1" fill-rule="nonzero"/><path fill="#fc657e" d="M 432.914062 522.480469 C 425.722656 522.480469 419.894531 528.3125 419.894531 535.5 L 419.894531 579.023438 L 476.429688 522.480469 Z M 432.914062 522.480469 " fill-opacity="1" fill-rule="nonzero"/><path fill="#87d147" d="M 686.003906 299.414062 C 678.8125 299.414062 672.984375 305.246094 672.984375 312.433594 L 672.984375 355.957031 L 729.519531 299.414062 Z M 686.003906 299.414062 " fill-opacity="1" fill-rule="nonzero"/><path fill="#87d147" d="M 686.003906 522.480469 C 678.8125 522.480469 672.984375 528.3125 672.984375 535.5 L 672.984375 579.023438 L 729.519531 522.480469 Z M 686.003906 522.480469 " fill-opacity="1" fill-rule="nonzero"/><path fill="#87d147" d="M 686.003906 745.546875 C 678.8125 745.546875 672.984375 751.378906 672.984375 758.566406 L 672.984375 802.089844 L 729.519531 745.546875 Z M 686.003906 745.546875 " fill-opacity="1" fill-rule="nonzero"/><path fill="#fc657e" d="M 348.484375 684.691406 C 334.25 682.160156 323.175781 671.085938 320.328125 657.164062 C 320.328125 656.53125 319.0625 656.53125 319.0625 657.164062 C 316.214844 671.085938 305.144531 682.160156 290.90625 684.691406 C 290.273438 684.691406 290.273438 685.640625 290.90625 685.957031 C 305.144531 688.488281 316.214844 699.5625 319.0625 713.484375 C 319.0625 714.117188 320.328125 714.117188 320.328125 713.484375 C 323.175781 699.5625 334.25 688.488281 348.484375 685.957031 C 349.117188 685.644531 349.117188 684.691406 348.484375 684.691406 Z M 348.484375 684.691406 " fill-opacity="1" fill-rule="nonzero"/><path fill="#f5c84c" d="M 271.167969 19.648438 C 261.179688 17.875 253.410156 10.101562 251.414062 0.335938 C 251.414062 -0.109375 250.523438 -0.109375 250.523438 0.335938 C 248.527344 10.101562 240.757812 17.875 230.765625 19.648438 C 230.324219 19.648438 230.324219 20.3125 230.765625 20.539062 C 240.757812 22.316406 248.523438 30.082031 250.523438 39.851562 C 250.523438 40.292969 251.414062 40.292969 251.414062 39.851562 C 253.410156 30.082031 261.179688 22.3125 271.167969 20.539062 C 271.613281 20.3125 271.613281 19.648438 271.167969 19.648438 Z M 271.167969 19.648438 " fill-opacity="1" fill-rule="nonzero"/><g clip-path="url(#fc73b9207b)"><path fill="#70d6f9" d="M 783.960938 340.597656 L 776.683594 340.597656 L 776.683594 333.320312 C 776.683594 327.941406 772.253906 323.195312 766.558594 323.195312 C 760.863281 323.195312 756.4375 327.625 756.4375 333.320312 L 756.4375 340.597656 L 749.160156 340.597656 C 743.78125 340.597656 739.035156 345.027344 739.035156 350.722656 C 739.035156 356.417969 743.464844 360.847656 749.160156 360.847656 L 756.4375 360.847656 L 756.4375 368.125 C 756.4375 373.503906 760.863281 378.25 766.558594 378.25 C 772.253906 378.25 776.683594 373.820312 776.683594 368.125 L 776.683594 360.847656 L 783.960938 360.847656 C 789.335938 360.847656 794.082031 356.417969 794.082031 350.722656 C 794.082031 345.03125 789.652344 340.597656 783.960938 340.597656 Z M 783.960938 340.597656 " fill-opacity="1" fill-rule="nonzero"/></g><path fill="#f5c84c" d="M 281.417969 753.046875 C 275.476562 753.046875 270.660156 757.863281 270.660156 763.804688 C 270.660156 769.746094 275.476562 774.5625 281.417969 774.5625 C 287.359375 774.5625 292.171875 769.746094 292.171875 763.804688 C 292.171875 757.863281 287.359375 753.046875 281.417969 753.046875 Z M 281.417969 753.046875 " fill-opacity="1" fill-rule="nonzero"/><path fill="#87d147" d="M 502.710938 120.234375 C 496.769531 120.234375 491.957031 125.050781 491.957031 130.992188 C 491.957031 136.933594 496.769531 141.75 502.710938 141.75 C 508.652344 141.75 513.46875 136.933594 513.46875 130.992188 C 513.46875 125.050781 508.652344 120.234375 502.710938 120.234375 Z M 502.710938 120.234375 " fill-opacity="1" fill-rule="nonzero"/><path fill="#000000" d="M 210.316406 161.367188 L 150.691406 161.367188 C 146.324219 161.367188 142.78125 164.90625 142.78125 169.277344 C 142.78125 173.648438 146.324219 177.1875 150.691406 177.1875 L 210.316406 177.1875 C 213.136719 177.1875 215.425781 179.480469 215.425781 182.296875 L 215.425781 296.136719 L 163.527344 348.046875 L 37.046875 348.046875 C 34.230469 348.046875 31.9375 345.753906 31.9375 342.9375 L 31.9375 182.296875 C 31.9375 179.476562 34.230469 177.1875 37.046875 177.1875 L 96.386719 177.1875 C 100.753906 177.1875 104.292969 173.648438 104.292969 169.277344 C 104.292969 164.90625 100.753906 161.367188 96.386719 161.367188 L 37.046875 161.367188 C 25.511719 161.367188 16.121094 170.757812 16.121094 182.296875 L 16.121094 342.9375 C 16.121094 354.476562 25.511719 363.867188 37.046875 363.867188 L 166.804688 363.867188 C 168.902344 363.867188 170.914062 363.03125 172.398438 361.550781 L 228.933594 305.007812 C 230.414062 303.523438 231.246094 301.515625 231.246094 299.414062 L 231.246094 182.296875 C 231.246094 170.757812 221.859375 161.367188 210.316406 161.367188 Z M 210.316406 161.367188 " fill-opacity="1" fill-rule="nonzero"/><path fill="#000000" d="M 123.679688 136.054688 C 105.363281 136.054688 90.460938 150.957031 90.460938 169.277344 C 90.460938 187.597656 105.363281 202.5 123.679688 202.5 C 142 202.5 156.898438 187.597656 156.898438 169.277344 C 156.898438 150.957031 142 136.054688 123.679688 136.054688 Z M 123.679688 186.679688 C 114.085938 186.679688 106.28125 178.871094 106.28125 169.277344 C 106.28125 159.683594 114.085938 151.875 123.679688 151.875 C 133.277344 151.875 141.082031 159.683594 141.082031 169.277344 C 141.082031 178.871094 133.277344 186.679688 123.679688 186.679688 Z M 123.679688 186.679688 " fill-opacity="1" fill-rule="nonzero"/><path fill="#000000" d="M 132.332031 288.804688 L 69.394531 288.804688 C 65.023438 288.804688 61.484375 292.347656 61.484375 296.714844 C 61.484375 301.085938 65.023438 304.625 69.394531 304.625 L 132.332031 304.625 C 136.703125 304.625 140.242188 301.085938 140.242188 296.714844 C 140.242188 292.347656 136.703125 288.804688 132.332031 288.804688 Z M 132.332031 288.804688 " fill-opacity="1" fill-rule="nonzero"/><path fill="#000000" d="M 177.976562 257.871094 L 69.394531 257.871094 C 65.023438 257.871094 61.484375 261.410156 61.484375 265.78125 C 61.484375 270.152344 65.023438 273.691406 69.394531 273.691406 L 177.976562 273.691406 C 182.34375 273.691406 185.882812 270.152344 185.882812 265.78125 C 185.882812 261.410156 182.339844 257.871094 177.976562 257.871094 Z M 177.976562 257.871094 " fill-opacity="1" fill-rule="nonzero"/><path fill="#000000" d="M 177.976562 226.9375 L 69.394531 226.9375 C 65.023438 226.9375 61.484375 230.476562 61.484375 234.847656 C 61.484375 239.214844 65.023438 242.757812 69.394531 242.757812 L 177.976562 242.757812 C 182.34375 242.757812 185.882812 239.214844 185.882812 234.847656 C 185.882812 230.476562 182.339844 226.9375 177.976562 226.9375 Z M 177.976562 226.9375 " fill-opacity="1" fill-rule="nonzero"/><path fill="#000000" d="M 210.316406 384.433594 L 152.011719 384.433594 C 147.640625 384.433594 144.101562 387.972656 144.101562 392.34375 C 144.101562 396.714844 147.640625 400.253906 152.011719 400.253906 L 210.316406 400.253906 C 213.136719 400.253906 215.425781 402.546875 215.425781 405.363281 L 215.425781 519.203125 L 163.527344 571.113281 L 37.046875 571.113281 C 34.230469 571.113281 31.9375 568.820312 31.9375 566.003906 L 31.9375 405.363281 C 31.9375 402.542969 34.230469 400.253906 37.046875 400.253906 L 95.265625 400.253906 C 99.632812 400.253906 103.175781 396.714844 103.175781 392.34375 C 103.175781 387.972656 99.632812 384.433594 95.265625 384.433594 L 37.046875 384.433594 C 25.511719 384.433594 16.121094 393.824219 16.121094 405.363281 L 16.121094 566.003906 C 16.121094 577.542969 25.511719 586.933594 37.046875 586.933594 L 166.804688 586.933594 C 168.902344 586.933594 170.914062 586.097656 172.398438 584.617188 L 228.933594 528.074219 C 230.414062 526.59375 231.246094 524.582031 231.246094 522.480469 L 231.246094 405.363281 C 231.246094 393.824219 221.859375 384.433594 210.316406 384.433594 Z M 210.316406 384.433594 " fill-opacity="1" fill-rule="nonzero"/><path fill="#000000" d="M 123.679688 359.121094 C 105.363281 359.121094 90.460938 374.023438 90.460938 392.34375 C 90.460938 410.664062 105.363281 425.566406 123.679688 425.566406 C 142 425.566406 156.898438 410.664062 156.898438 392.34375 C 156.898438 374.023438 142 359.121094 123.679688 359.121094 Z M 123.679688 409.746094 C 114.085938 409.746094 106.28125 401.9375 106.28125 392.34375 C 106.28125 382.75 114.085938 374.941406 123.679688 374.941406 C 133.277344 374.941406 141.082031 382.75 141.082031 392.34375 C 141.082031 401.9375 133.277344 409.746094 123.679688 409.746094 Z M 123.679688 409.746094 " fill-opacity="1" fill-rule="nonzero"/><path fill="#000000" d="M 132.332031 511.871094 L 69.394531 511.871094 C 65.023438 511.871094 61.484375 515.414062 61.484375 519.78125 C 61.484375 524.152344 65.023438 527.691406 69.394531 527.691406 L 132.332031 527.691406 C 136.703125 527.691406 140.242188 524.152344 140.242188 519.78125 C 140.242188 515.414062 136.703125 511.871094 132.332031 511.871094 Z M 132.332031 511.871094 " fill-opacity="1" fill-rule="nonzero"/><path fill="#000000" d="M 177.976562 480.9375 L 69.394531 480.9375 C 65.023438 480.9375 61.484375 484.476562 61.484375 488.847656 C 61.484375 493.21875 65.023438 496.757812 69.394531 496.757812 L 177.976562 496.757812 C 182.34375 496.757812 185.882812 493.21875 185.882812 488.847656 C 185.882812 484.476562 182.339844 480.9375 177.976562 480.9375 Z M 177.976562 480.9375 " fill-opacity="1" fill-rule="nonzero"/><path fill="#000000" d="M 177.976562 450.003906 L 69.394531 450.003906 C 65.023438 450.003906 61.484375 453.542969 61.484375 457.914062 C 61.484375 462.28125 65.023438 465.824219 69.394531 465.824219 L 177.976562 465.824219 C 182.34375 465.824219 185.882812 462.28125 185.882812 457.914062 C 185.882812 453.542969 182.339844 450.003906 177.976562 450.003906 Z M 177.976562 450.003906 " fill-opacity="1" fill-rule="nonzero"/><path fill="#000000" d="M 210.316406 607.5 L 151.484375 607.5 C 147.113281 607.5 143.574219 611.039062 143.574219 615.410156 C 143.574219 619.78125 147.113281 623.320312 151.484375 623.320312 L 210.316406 623.320312 C 213.136719 623.320312 215.425781 625.613281 215.425781 628.429688 L 215.425781 742.269531 L 163.527344 794.179688 L 37.046875 794.179688 C 34.230469 794.179688 31.9375 791.886719 31.9375 789.070312 L 31.9375 628.429688 C 31.9375 625.609375 34.230469 623.320312 37.046875 623.320312 L 95.464844 623.320312 C 99.832031 623.320312 103.375 619.78125 103.375 615.410156 C 103.375 611.039062 99.832031 607.5 95.464844 607.5 L 37.046875 607.5 C 25.511719 607.5 16.121094 616.890625 16.121094 628.429688 L 16.121094 789.070312 C 16.121094 800.609375 25.511719 810 37.046875 810 L 166.804688 810 C 168.902344 810 170.914062 809.164062 172.398438 807.683594 L 228.933594 751.140625 C 230.414062 749.660156 231.246094 747.648438 231.246094 745.546875 L 231.246094 628.429688 C 231.246094 616.890625 221.859375 607.5 210.316406 607.5 Z M 210.316406 607.5 " fill-opacity="1" fill-rule="nonzero"/><path fill="#000000" d="M 123.679688 582.1875 C 105.363281 582.1875 90.460938 597.089844 90.460938 615.410156 C 90.460938 633.730469 105.363281 648.632812 123.679688 648.632812 C 142 648.632812 156.898438 633.730469 156.898438 615.410156 C 156.898438 597.089844 142 582.1875 123.679688 582.1875 Z M 123.679688 632.8125 C 114.085938 632.8125 106.28125 625.003906 106.28125 615.410156 C 106.28125 605.816406 114.085938 598.007812 123.679688 598.007812 C 133.277344 598.007812 141.082031 605.816406 141.082031 615.410156 C 141.082031 625.003906 133.277344 632.8125 123.679688 632.8125 Z M 123.679688 632.8125 " fill-opacity="1" fill-rule="nonzero"/><path fill="#000000" d="M 132.332031 734.9375 L 69.394531 734.9375 C 65.023438 734.9375 61.484375 738.480469 61.484375 742.847656 C 61.484375 747.21875 65.023438 750.757812 69.394531 750.757812 L 132.332031 750.757812 C 136.703125 750.757812 140.242188 747.21875 140.242188 742.847656 C 140.242188 738.480469 136.703125 734.9375 132.332031 734.9375 Z M 132.332031 734.9375 " fill-opacity="1" fill-rule="nonzero"/><path fill="#000000" d="M 177.976562 704.003906 L 69.394531 704.003906 C 65.023438 704.003906 61.484375 707.542969 61.484375 711.914062 C 61.484375 716.285156 65.023438 719.824219 69.394531 719.824219 L 177.976562 719.824219 C 182.34375 719.824219 185.882812 716.285156 185.882812 711.914062 C 185.882812 707.542969 182.339844 704.003906 177.976562 704.003906 Z M 177.976562 704.003906 " fill-opacity="1" fill-rule="nonzero"/><path fill="#000000" d="M 177.976562 673.070312 L 69.394531 673.070312 C 65.023438 673.070312 61.484375 676.609375 61.484375 680.980469 C 61.484375 685.347656 65.023438 688.890625 69.394531 688.890625 L 177.976562 688.890625 C 182.34375 688.890625 185.882812 685.347656 185.882812 680.980469 C 185.882812 676.609375 182.339844 673.070312 177.976562 673.070312 Z M 177.976562 673.070312 " fill-opacity="1" fill-rule="nonzero"/><path fill="#000000" d="M 214.417969 37.96875 L 33.066406 37.96875 C 23.753906 37.96875 16.175781 45.546875 16.175781 54.859375 L 16.175781 87.523438 C 16.175781 96.835938 23.753906 104.414062 33.066406 104.414062 L 214.417969 104.414062 C 223.726562 104.414062 231.304688 96.835938 231.304688 87.523438 L 231.304688 54.859375 C 231.304688 45.546875 223.726562 37.96875 214.417969 37.96875 Z M 215.488281 87.523438 C 215.488281 88.117188 215.003906 88.59375 214.417969 88.59375 L 33.066406 88.59375 C 32.472656 88.59375 31.996094 88.117188 31.996094 87.523438 L 31.996094 54.859375 C 31.996094 54.265625 32.472656 53.789062 33.066406 53.789062 L 214.417969 53.789062 C 215.007812 53.789062 215.488281 54.265625 215.488281 54.859375 Z M 215.488281 87.523438 " fill-opacity="1" fill-rule="nonzero"/><path fill="#000000" d="M 463.410156 161.367188 L 404.640625 161.367188 C 400.269531 161.367188 396.730469 164.90625 396.730469 169.277344 C 396.730469 173.648438 400.269531 177.1875 404.640625 177.1875 L 463.410156 177.1875 C 466.230469 177.1875 468.519531 179.480469 468.519531 182.296875 L 468.519531 296.136719 L 416.621094 348.046875 L 290.136719 348.046875 C 287.320312 348.046875 285.03125 345.753906 285.03125 342.9375 L 285.03125 182.296875 C 285.03125 179.476562 287.324219 177.1875 290.136719 177.1875 L 349.34375 177.1875 C 353.710938 177.1875 357.253906 173.648438 357.253906 169.277344 C 357.253906 164.90625 353.710938 161.367188 349.34375 161.367188 L 290.136719 161.367188 C 278.601562 161.367188 269.210938 170.757812 269.210938 182.296875 L 269.210938 342.9375 C 269.210938 354.476562 278.601562 363.867188 290.136719 363.867188 L 419.894531 363.867188 C 421.992188 363.867188 424.003906 363.03125 425.488281 361.550781 L 482.023438 305.007812 C 483.507812 303.523438 484.339844 301.515625 484.339844 299.414062 L 484.339844 182.296875 C 484.339844 170.757812 474.949219 161.367188 463.410156 161.367188 Z M 463.410156 161.367188 " fill-opacity="1" fill-rule="nonzero"/><path fill="#000000" d="M 376.773438 136.054688 C 358.453125 136.054688 343.554688 150.957031 343.554688 169.277344 C 343.554688 187.597656 358.453125 202.5 376.773438 202.5 C 395.089844 202.5 409.988281 187.597656 409.988281 169.277344 C 409.988281 150.957031 395.089844 136.054688 376.773438 136.054688 Z M 376.773438 186.679688 C 367.175781 186.679688 359.371094 178.871094 359.371094 169.277344 C 359.371094 159.683594 367.175781 151.875 376.773438 151.875 C 386.367188 151.875 394.171875 159.683594 394.171875 169.277344 C 394.171875 178.871094 386.367188 186.679688 376.773438 186.679688 Z M 376.773438 186.679688 " fill-opacity="1" fill-rule="nonzero"/><path fill="#000000" d="M 385.425781 288.804688 L 322.484375 288.804688 C 318.113281 288.804688 314.574219 292.347656 314.574219 296.714844 C 314.574219 301.085938 318.113281 304.625 322.484375 304.625 L 385.425781 304.625 C 389.792969 304.625 393.332031 301.085938 393.332031 296.714844 C 393.332031 292.347656 389.792969 288.804688 385.425781 288.804688 Z M 385.425781 288.804688 " fill-opacity="1" fill-rule="nonzero"/><path fill="#000000" d="M 431.0625 257.871094 L 322.484375 257.871094 C 318.113281 257.871094 314.574219 261.410156 314.574219 265.78125 C 314.574219 270.152344 318.113281 273.691406 322.484375 273.691406 L 431.0625 273.691406 C 435.429688 273.691406 438.972656 270.152344 438.972656 265.78125 C 438.972656 261.410156 435.433594 257.871094 431.0625 257.871094 Z M 431.0625 257.871094 " fill-opacity="1" fill-rule="nonzero"/><path fill="#000000" d="M 431.0625 226.9375 L 322.484375 226.9375 C 318.113281 226.9375 314.574219 230.476562 314.574219 234.847656 C 314.574219 239.214844 318.113281 242.757812 322.484375 242.757812 L 431.0625 242.757812 C 435.429688 242.757812 438.972656 239.214844 438.972656 234.847656 C 438.972656 230.476562 435.433594 226.9375 431.0625 226.9375 Z M 431.0625 226.9375 " fill-opacity="1" fill-rule="nonzero"/><path fill="#000000" d="M 463.410156 384.433594 L 404.445312 384.433594 C 400.074219 384.433594 396.535156 387.972656 396.535156 392.34375 C 396.535156 396.714844 400.074219 400.253906 404.445312 400.253906 L 463.410156 400.253906 C 466.230469 400.253906 468.519531 402.546875 468.519531 405.363281 L 468.519531 519.203125 L 416.621094 571.113281 L 290.136719 571.113281 C 287.320312 571.113281 285.03125 568.820312 285.03125 566.003906 L 285.03125 405.363281 C 285.03125 402.542969 287.324219 400.253906 290.136719 400.253906 L 349.210938 400.253906 C 353.578125 400.253906 357.117188 396.714844 357.117188 392.34375 C 357.117188 387.972656 353.578125 384.433594 349.210938 384.433594 L 290.136719 384.433594 C 278.601562 384.433594 269.210938 393.824219 269.210938 405.363281 L 269.210938 566.003906 C 269.210938 577.542969 278.601562 586.933594 290.136719 586.933594 L 419.894531 586.933594 C 421.992188 586.933594 424.003906 586.097656 425.488281 584.617188 L 482.023438 528.074219 C 483.507812 526.59375 484.339844 524.582031 484.339844 522.480469 L 484.339844 405.363281 C 484.339844 393.824219 474.949219 384.433594 463.410156 384.433594 Z M 463.410156 384.433594 " fill-opacity="1" fill-rule="nonzero"/><path fill="#000000" d="M 376.773438 359.121094 C 358.453125 359.121094 343.554688 374.023438 343.554688 392.34375 C 343.554688 410.664062 358.453125 425.566406 376.773438 425.566406 C 395.089844 425.566406 409.988281 410.664062 409.988281 392.34375 C 409.988281 374.023438 395.089844 359.121094 376.773438 359.121094 Z M 376.773438 409.746094 C 367.175781 409.746094 359.371094 401.9375 359.371094 392.34375 C 359.371094 382.75 367.175781 374.941406 376.773438 374.941406 C 386.367188 374.941406 394.171875 382.75 394.171875 392.34375 C 394.171875 401.9375 386.367188 409.746094 376.773438 409.746094 Z M 376.773438 409.746094 " fill-opacity="1" fill-rule="nonzero"/><path fill="#000000" d="M 385.425781 511.871094 L 322.484375 511.871094 C 318.113281 511.871094 314.574219 515.414062 314.574219 519.78125 C 314.574219 524.152344 318.113281 527.691406 322.484375 527.691406 L 385.425781 527.691406 C 389.792969 527.691406 393.332031 524.152344 393.332031 519.78125 C 393.332031 515.414062 389.792969 511.871094 385.425781 511.871094 Z M 385.425781 511.871094 " fill-opacity="1" fill-rule="nonzero"/><path fill="#000000" d="M 431.0625 480.9375 L 322.484375 480.9375 C 318.113281 480.9375 314.574219 484.476562 314.574219 488.847656 C 314.574219 493.21875 318.113281 496.757812 322.484375 496.757812 L 431.0625 496.757812 C 435.429688 496.757812 438.972656 493.21875 438.972656 488.847656 C 438.972656 484.476562 435.433594 480.9375 431.0625 480.9375 Z M 431.0625 480.9375 " fill-opacity="1" fill-rule="nonzero"/><path fill="#000000" d="M 431.0625 450.003906 L 322.484375 450.003906 C 318.113281 450.003906 314.574219 453.542969 314.574219 457.914062 C 314.574219 462.28125 318.113281 465.824219 322.484375 465.824219 L 431.0625 465.824219 C 435.429688 465.824219 438.972656 462.28125 438.972656 457.914062 C 438.972656 453.542969 435.433594 450.003906 431.0625 450.003906 Z M 431.0625 450.003906 " fill-opacity="1" fill-rule="nonzero"/><path fill="#000000" d="M 467.507812 37.96875 L 286.15625 37.96875 C 276.84375 37.96875 269.269531 45.546875 269.269531 54.859375 L 269.269531 87.523438 C 269.269531 96.835938 276.84375 104.414062 286.15625 104.414062 L 467.507812 104.414062 C 476.816406 104.414062 484.394531 96.835938 484.394531 87.523438 L 484.394531 54.859375 C 484.390625 45.546875 476.816406 37.96875 467.507812 37.96875 Z M 468.574219 87.523438 C 468.574219 88.117188 468.097656 88.59375 467.503906 88.59375 L 286.15625 88.59375 C 285.5625 88.59375 285.085938 88.117188 285.085938 87.523438 L 285.085938 54.859375 C 285.085938 54.265625 285.5625 53.789062 286.15625 53.789062 L 467.507812 53.789062 C 468.097656 53.789062 468.578125 54.265625 468.578125 54.859375 L 468.578125 87.523438 Z M 468.574219 87.523438 " fill-opacity="1" fill-rule="nonzero"/><path fill="#000000" d="M 716.5 161.367188 L 657.796875 161.367188 C 653.429688 161.367188 649.886719 164.90625 649.886719 169.277344 C 649.886719 173.648438 653.429688 177.1875 657.796875 177.1875 L 716.5 177.1875 C 719.320312 177.1875 721.609375 179.480469 721.609375 182.296875 L 721.609375 296.136719 L 669.710938 348.046875 L 543.234375 348.046875 C 540.414062 348.046875 538.125 345.753906 538.125 342.9375 L 538.125 182.296875 C 538.125 179.476562 540.417969 177.1875 543.234375 177.1875 L 602.242188 177.1875 C 606.609375 177.1875 610.148438 173.648438 610.148438 169.277344 C 610.148438 164.90625 606.609375 161.367188 602.242188 161.367188 L 543.234375 161.367188 C 531.695312 161.367188 522.304688 170.757812 522.304688 182.296875 L 522.304688 342.9375 C 522.304688 354.476562 531.695312 363.867188 543.234375 363.867188 L 672.988281 363.867188 C 675.085938 363.867188 677.097656 363.03125 678.582031 361.550781 L 735.117188 305.007812 C 736.601562 303.523438 737.433594 301.515625 737.433594 299.414062 L 737.433594 182.296875 C 737.429688 170.757812 728.039062 161.367188 716.5 161.367188 Z M 716.5 161.367188 " fill-opacity="1" fill-rule="nonzero"/><path fill="#000000" d="M 629.867188 136.054688 C 611.546875 136.054688 596.648438 150.957031 596.648438 169.277344 C 596.648438 187.597656 611.546875 202.5 629.867188 202.5 C 648.183594 202.5 663.082031 187.597656 663.082031 169.277344 C 663.082031 150.957031 648.183594 136.054688 629.867188 136.054688 Z M 629.867188 186.679688 C 620.273438 186.679688 612.464844 178.871094 612.464844 169.277344 C 612.464844 159.683594 620.273438 151.875 629.867188 151.875 C 639.457031 151.875 647.265625 159.683594 647.265625 169.277344 C 647.265625 178.871094 639.457031 186.679688 629.867188 186.679688 Z M 629.867188 186.679688 " fill-opacity="1" fill-rule="nonzero"/><path fill="#000000" d="M 716.5 384.433594 L 658.789062 384.433594 C 654.417969 384.433594 650.878906 387.972656 650.878906 392.34375 C 650.878906 396.714844 654.417969 400.253906 658.789062 400.253906 L 716.5 400.253906 C 719.320312 400.253906 721.609375 402.546875 721.609375 405.363281 L 721.609375 519.203125 L 669.710938 571.113281 L 543.234375 571.113281 C 540.414062 571.113281 538.125 568.820312 538.125 566.003906 L 538.125 405.363281 C 538.125 402.542969 540.417969 400.253906 543.234375 400.253906 L 601.445312 400.253906 C 605.816406 400.253906 609.355469 396.714844 609.355469 392.34375 C 609.355469 387.972656 605.816406 384.433594 601.445312 384.433594 L 543.234375 384.433594 C 531.695312 384.433594 522.304688 393.824219 522.304688 405.363281 L 522.304688 566.003906 C 522.304688 577.542969 531.695312 586.933594 543.234375 586.933594 L 672.988281 586.933594 C 675.085938 586.933594 677.097656 586.097656 678.582031 584.617188 L 735.117188 528.074219 C 736.601562 526.59375 737.433594 524.582031 737.433594 522.480469 L 737.433594 405.363281 C 737.429688 393.824219 728.039062 384.433594 716.5 384.433594 Z M 716.5 384.433594 " fill-opacity="1" fill-rule="nonzero"/><path fill="#000000" d="M 629.867188 359.121094 C 611.546875 359.121094 596.648438 374.023438 596.648438 392.34375 C 596.648438 410.664062 611.546875 425.566406 629.867188 425.566406 C 648.183594 425.566406 663.082031 410.664062 663.082031 392.34375 C 663.082031 374.023438 648.183594 359.121094 629.867188 359.121094 Z M 629.867188 409.746094 C 620.273438 409.746094 612.464844 401.9375 612.464844 392.34375 C 612.464844 382.75 620.273438 374.941406 629.867188 374.941406 C 639.457031 374.941406 647.265625 382.75 647.265625 392.34375 C 647.265625 401.9375 639.457031 409.746094 629.867188 409.746094 Z M 629.867188 409.746094 " fill-opacity="1" fill-rule="nonzero"/><path fill="#000000" d="M 716.5 607.5 L 658.058594 607.5 C 653.691406 607.5 650.152344 611.039062 650.152344 615.410156 C 650.152344 619.78125 653.691406 623.320312 658.058594 623.320312 L 716.5 623.320312 C 719.320312 623.320312 721.609375 625.613281 721.609375 628.429688 L 721.609375 742.269531 L 669.710938 794.179688 L 543.234375 794.179688 C 540.414062 794.179688 538.125 791.886719 538.125 789.070312 L 538.125 628.429688 C 538.125 625.609375 540.417969 623.320312 543.234375 623.320312 L 601.910156 623.320312 C 606.277344 623.320312 609.816406 619.78125 609.816406 615.410156 C 609.816406 611.039062 606.277344 607.5 601.910156 607.5 L 543.234375 607.5 C 531.695312 607.5 522.304688 616.890625 522.304688 628.429688 L 522.304688 789.070312 C 522.304688 800.609375 531.695312 810 543.234375 810 L 672.988281 810 C 675.085938 810 677.097656 809.164062 678.582031 807.683594 L 735.117188 751.140625 C 736.601562 749.660156 737.433594 747.648438 737.433594 745.546875 L 737.433594 628.429688 C 737.429688 616.890625 728.039062 607.5 716.5 607.5 Z M 716.5 607.5 " fill-opacity="1" fill-rule="nonzero"/><path fill="#000000" d="M 629.867188 582.1875 C 611.546875 582.1875 596.648438 597.089844 596.648438 615.410156 C 596.648438 633.730469 611.546875 648.632812 629.867188 648.632812 C 648.183594 648.632812 663.082031 633.730469 663.082031 615.410156 C 663.082031 597.089844 648.183594 582.1875 629.867188 582.1875 Z M 629.867188 632.8125 C 620.273438 632.8125 612.464844 625.003906 612.464844 615.410156 C 612.464844 605.816406 620.273438 598.007812 629.867188 598.007812 C 639.457031 598.007812 647.265625 605.816406 647.265625 615.410156 C 647.265625 625.003906 639.457031 632.8125 629.867188 632.8125 Z M 629.867188 632.8125 " fill-opacity="1" fill-rule="nonzero"/><path fill="#000000" d="M 720.597656 37.96875 L 539.25 37.96875 C 529.9375 37.96875 522.359375 45.546875 522.359375 54.859375 L 522.359375 87.523438 C 522.359375 96.835938 529.9375 104.414062 539.25 104.414062 L 720.597656 104.414062 C 729.910156 104.414062 737.484375 96.835938 737.484375 87.523438 L 737.484375 54.859375 C 737.484375 45.546875 729.910156 37.96875 720.597656 37.96875 Z M 721.664062 87.523438 C 721.664062 88.117188 721.1875 88.59375 720.59375 88.59375 L 539.246094 88.59375 C 538.65625 88.59375 538.175781 88.117188 538.175781 87.523438 L 538.175781 54.859375 C 538.175781 54.265625 538.65625 53.789062 539.246094 53.789062 L 720.59375 53.789062 C 721.1875 53.789062 721.664062 54.265625 721.664062 54.859375 Z M 721.664062 87.523438 " fill-opacity="1" fill-rule="nonzero"/><path fill="#000000" d="M 678.015625 221.804688 C 668.597656 212.398438 653.28125 212.394531 643.863281 221.808594 L 623.394531 242.277344 L 615.921875 234.800781 C 606.507812 225.390625 591.1875 225.390625 581.773438 234.804688 C 572.355469 244.222656 572.355469 259.542969 581.773438 268.964844 L 606.320312 293.511719 C 610.878906 298.074219 616.941406 300.589844 623.394531 300.589844 C 629.847656 300.589844 635.910156 298.078125 640.46875 293.515625 L 678.011719 255.96875 C 687.429688 246.546875 687.429688 231.222656 678.015625 221.804688 Z M 666.828125 244.777344 L 629.285156 282.324219 C 626.132812 285.472656 620.652344 285.472656 617.5 282.324219 L 592.953125 257.773438 C 589.703125 254.523438 589.703125 249.238281 592.949219 245.988281 C 594.578125 244.359375 596.710938 243.550781 598.847656 243.550781 C 600.980469 243.550781 603.113281 244.359375 604.738281 245.984375 L 617.800781 259.050781 C 619.28125 260.535156 621.292969 261.367188 623.390625 261.367188 C 625.492188 261.367188 627.503906 260.53125 628.984375 259.050781 L 655.039062 232.992188 C 658.292969 229.742188 663.578125 229.746094 666.828125 232.988281 C 670.082031 236.242188 670.082031 241.527344 666.828125 244.777344 Z M 666.828125 244.777344 " fill-opacity="1" fill-rule="nonzero"/><path fill="#000000" d="M 678.015625 444.871094 C 668.597656 435.464844 653.28125 435.460938 643.863281 444.875 L 623.394531 465.34375 L 615.921875 457.867188 C 606.507812 448.457031 591.1875 448.457031 581.773438 457.871094 C 572.355469 467.289062 572.355469 482.609375 581.773438 492.03125 L 606.320312 516.578125 C 610.878906 521.140625 616.941406 523.65625 623.394531 523.65625 C 629.847656 523.65625 635.910156 521.144531 640.46875 516.582031 L 678.011719 479.035156 C 687.429688 469.613281 687.429688 454.289062 678.015625 444.871094 Z M 666.828125 467.84375 L 629.285156 505.390625 C 626.132812 508.539062 620.652344 508.539062 617.5 505.390625 L 592.953125 480.839844 C 589.703125 477.589844 589.703125 472.304688 592.949219 469.054688 C 594.578125 467.425781 596.710938 466.617188 598.847656 466.617188 C 600.980469 466.617188 603.113281 467.425781 604.738281 469.050781 L 617.800781 482.117188 C 619.28125 483.601562 621.292969 484.433594 623.390625 484.433594 C 625.492188 484.433594 627.503906 483.597656 628.984375 482.117188 L 655.039062 456.058594 C 658.292969 452.808594 663.578125 452.8125 666.828125 456.054688 C 670.082031 459.308594 670.082031 464.59375 666.828125 467.84375 Z M 666.828125 467.84375 " fill-opacity="1" fill-rule="nonzero"/><path fill="#000000" d="M 678.015625 667.9375 C 668.597656 658.53125 653.28125 658.527344 643.863281 667.941406 L 623.394531 688.410156 L 615.921875 680.933594 C 606.507812 671.523438 591.1875 671.523438 581.773438 680.9375 C 572.355469 690.355469 572.355469 705.675781 581.773438 715.097656 L 606.320312 739.644531 C 610.878906 744.207031 616.941406 746.722656 623.394531 746.722656 C 629.847656 746.722656 635.910156 744.210938 640.46875 739.648438 L 678.011719 702.101562 C 687.429688 692.679688 687.429688 677.355469 678.015625 667.9375 Z M 666.828125 690.910156 L 629.285156 728.457031 C 626.132812 731.605469 620.652344 731.605469 617.5 728.457031 L 592.953125 703.90625 C 589.703125 700.65625 589.703125 695.371094 592.949219 692.121094 C 594.578125 690.492188 596.710938 689.683594 598.847656 689.683594 C 600.980469 689.683594 603.113281 690.492188 604.738281 692.117188 L 617.800781 705.183594 C 619.28125 706.667969 621.292969 707.5 623.390625 707.5 C 625.492188 707.5 627.503906 706.664062 628.984375 705.183594 L 655.039062 679.125 C 658.292969 675.875 663.578125 675.878906 666.828125 679.121094 C 670.082031 682.375 670.082031 687.660156 666.828125 690.910156 Z M 666.828125 690.910156 " fill-opacity="1" fill-rule="nonzero"/><path fill="#000000" d="M 220.917969 291.503906 L 179.824219 291.503906 C 168.285156 291.503906 158.894531 300.894531 158.894531 312.433594 L 158.894531 353.1875 C 158.894531 357.558594 162.433594 361.097656 166.804688 361.097656 C 171.171875 361.097656 174.714844 357.558594 174.714844 353.1875 L 174.714844 312.433594 C 174.714844 309.617188 177.007812 307.324219 179.824219 307.324219 L 220.917969 307.324219 C 225.289062 307.324219 228.828125 303.785156 228.828125 299.414062 C 228.828125 295.046875 225.289062 291.503906 220.917969 291.503906 Z M 220.917969 291.503906 " fill-opacity="1" fill-rule="nonzero"/><path fill="#000000" d="M 220.558594 514.570312 L 179.824219 514.570312 C 168.285156 514.570312 158.894531 523.960938 158.894531 535.5 L 158.894531 575.726562 C 158.894531 580.097656 162.433594 583.636719 166.804688 583.636719 C 171.171875 583.636719 174.714844 580.097656 174.714844 575.726562 L 174.714844 535.5 C 174.714844 532.683594 177.007812 530.390625 179.824219 530.390625 L 220.558594 530.390625 C 224.925781 530.390625 228.464844 526.851562 228.464844 522.480469 C 228.464844 518.113281 224.925781 514.570312 220.558594 514.570312 Z M 220.558594 514.570312 " fill-opacity="1" fill-rule="nonzero"/><path fill="#000000" d="M 219.894531 737.636719 L 179.824219 737.636719 C 168.285156 737.636719 158.894531 747.027344 158.894531 758.566406 L 158.894531 799.320312 C 158.894531 803.691406 162.433594 807.230469 166.804688 807.230469 C 171.171875 807.230469 174.714844 803.691406 174.714844 799.320312 L 174.714844 758.566406 C 174.714844 755.75 177.007812 753.457031 179.824219 753.457031 L 219.898438 753.457031 C 224.265625 753.457031 227.804688 749.917969 227.804688 745.546875 C 227.804688 741.179688 224.261719 737.636719 219.894531 737.636719 Z M 219.894531 737.636719 " fill-opacity="1" fill-rule="nonzero"/><path fill="#000000" d="M 473.21875 291.503906 L 432.914062 291.503906 C 421.375 291.503906 411.984375 300.894531 411.984375 312.433594 L 411.984375 352.660156 C 411.984375 357.03125 415.527344 360.570312 419.894531 360.570312 C 424.265625 360.570312 427.804688 357.03125 427.804688 352.660156 L 427.804688 312.433594 C 427.804688 309.617188 430.097656 307.324219 432.914062 307.324219 L 473.21875 307.324219 C 477.585938 307.324219 481.128906 303.785156 481.128906 299.414062 C 481.128906 295.046875 477.585938 291.503906 473.21875 291.503906 Z M 473.21875 291.503906 " fill-opacity="1" fill-rule="nonzero"/><path fill="#000000" d="M 473.515625 514.570312 L 432.914062 514.570312 C 421.375 514.570312 411.984375 523.960938 411.984375 535.5 L 411.984375 575.859375 C 411.984375 580.230469 415.527344 583.769531 419.894531 583.769531 C 424.265625 583.769531 427.804688 580.230469 427.804688 575.859375 L 427.804688 535.5 C 427.804688 532.683594 430.097656 530.390625 432.914062 530.390625 L 473.515625 530.390625 C 477.882812 530.390625 481.425781 526.851562 481.425781 522.480469 C 481.425781 518.113281 477.882812 514.570312 473.515625 514.570312 Z M 473.515625 514.570312 " fill-opacity="1" fill-rule="nonzero"/><path fill="#000000" d="M 726.800781 291.503906 L 686.003906 291.503906 C 674.464844 291.503906 665.078125 300.894531 665.078125 312.433594 L 665.078125 353.054688 C 665.078125 357.425781 668.617188 360.964844 672.984375 360.964844 C 677.355469 360.964844 680.894531 357.425781 680.894531 353.054688 L 680.894531 312.433594 C 680.894531 309.617188 683.1875 307.324219 686.003906 307.324219 L 726.800781 307.324219 C 731.171875 307.324219 734.710938 303.785156 734.710938 299.414062 C 734.710938 295.046875 731.171875 291.503906 726.800781 291.503906 Z M 726.800781 291.503906 " fill-opacity="1" fill-rule="nonzero"/><path fill="#000000" d="M 726.867188 514.570312 L 686.003906 514.570312 C 674.464844 514.570312 665.078125 523.960938 665.078125 535.5 L 665.078125 575.726562 C 665.078125 580.097656 668.617188 583.636719 672.984375 583.636719 C 677.355469 583.636719 680.894531 580.097656 680.894531 575.726562 L 680.894531 535.5 C 680.894531 532.683594 683.1875 530.390625 686.003906 530.390625 L 726.867188 530.390625 C 731.238281 530.390625 734.777344 526.851562 734.777344 522.480469 C 734.777344 518.113281 731.238281 514.570312 726.867188 514.570312 Z M 726.867188 514.570312 " fill-opacity="1" fill-rule="nonzero"/><path fill="#000000" d="M 726.605469 737.636719 L 686.003906 737.636719 C 674.464844 737.636719 665.078125 747.027344 665.078125 758.566406 L 665.078125 798.792969 C 665.078125 803.164062 668.617188 806.703125 672.984375 806.703125 C 677.355469 806.703125 680.894531 803.164062 680.894531 798.792969 L 680.894531 758.566406 C 680.894531 755.75 683.1875 753.457031 686.003906 753.457031 L 726.605469 753.457031 C 730.976562 753.457031 734.515625 749.917969 734.515625 745.546875 C 734.515625 741.179688 730.976562 737.636719 726.605469 737.636719 Z M 726.605469 737.636719 " fill-opacity="1" fill-rule="nonzero"/></svg>