<svg xmlns="http://www.w3.org/2000/svg" xmlns:xlink="http://www.w3.org/1999/xlink" width="1080" zoomAndPan="magnify" viewBox="0 0 810 809.999993" height="1080" preserveAspectRatio="xMidYMid meet" version="1.0"><path fill="#68ca99" d="M 153.355469 405.847656 C 153.355469 336.109375 196.324219 276.121094 257.210938 251.167969 L 229.488281 142.257812 C 119.753906 180.015625 41.824219 284.242188 41.824219 405.847656 C 41.824219 468.613281 62.574219 526.636719 97.589844 573.21875 L 97.589844 587.167969 L 320.652344 587.167969 L 320.652344 573.21875 C 228.347656 573.21875 153.355469 498.195312 153.355469 405.847656 " fill-opacity="1" fill-rule="nonzero"/><path fill="#56be8b" d="M 320.652344 573.21875 L 97.589844 573.21875 C 62.574219 526.636719 41.824219 468.613281 41.824219 405.847656 L 153.355469 405.847656 C 153.355469 498.195312 228.347656 573.21875 320.652344 573.21875 " fill-opacity="1" fill-rule="nonzero"/><path fill="#455097" d="M 27.882812 573.21875 C 12.472656 573.21875 0 585.695312 0 601.113281 L 0 656.90625 C 0 672.324219 12.472656 684.800781 27.882812 684.800781 L 683.132812 684.800781 L 683.132812 725.828125 C 683.132812 738.957031 698.871094 745.496094 708.074219 736.289062 L 804.304688 639.472656 C 810.023438 633.640625 810.023438 624.378906 804.304688 618.550781 L 708.074219 521.734375 C 698.871094 512.578125 683.132812 519.117188 683.132812 532.195312 L 683.132812 573.21875 L 27.882812 573.21875 " fill-opacity="1" fill-rule="nonzero"/><path fill="#ef4a71" d="M 320.652344 126.894531 L 320.652344 85.867188 C 320.652344 72.792969 304.914062 66.199219 295.710938 75.40625 L 199.484375 172.386719 C 193.820312 178.054688 193.820312 187.425781 199.484375 193.144531 L 295.710938 289.960938 C 304.914062 299.277344 320.652344 292.742188 320.652344 279.609375 L 320.652344 238.476562 C 412.960938 238.476562 487.953125 313.5 487.953125 405.847656 C 487.953125 498.195312 412.960938 573.21875 320.652344 573.21875 L 320.652344 684.800781 C 411.816406 684.800781 492.796875 640.996094 543.71875 573.21875 C 578.734375 526.636719 599.484375 468.613281 599.484375 405.847656 C 599.484375 251.714844 474.71875 126.894531 320.652344 126.894531 " fill-opacity="1" fill-rule="nonzero"/><path fill="#d83a65" d="M 599.484375 405.847656 C 599.484375 251.714844 474.71875 126.894531 320.652344 126.894531 L 320.652344 85.867188 C 320.652344 72.792969 304.914062 66.199219 295.710938 75.40625 L 199.484375 172.386719 C 193.820312 178.054688 193.820312 187.425781 199.484375 193.144531 L 295.710938 289.960938 C 304.914062 299.277344 320.652344 292.742188 320.652344 279.609375 L 320.652344 238.476562 C 412.960938 238.476562 487.953125 313.5 487.953125 405.847656 L 599.484375 405.847656 " fill-opacity="1" fill-rule="nonzero"/></svg>