<svg xmlns="http://www.w3.org/2000/svg" xmlns:xlink="http://www.w3.org/1999/xlink" width="1080" zoomAndPan="magnify" viewBox="0 0 810 809.999993" height="1080" preserveAspectRatio="xMidYMid meet" version="1.0"><path fill="#e6e6e6" d="M 692.0625 691.253906 L 436.753906 691.253906 C 501.390625 645.246094 543.671875 569.59375 543.671875 484.378906 C 543.671875 352.675781 442.90625 244.132812 314.605469 231.660156 C 325.78125 127.980469 413.746094 46.980469 520.183594 46.980469 C 632.933594 46.980469 724.789062 137.699219 726.894531 249.964844 L 690.929688 243.972656 L 738.234375 327.5625 L 810 263.734375 L 774.035156 257.742188 L 774.035156 253.855469 C 774.035156 113.886719 660.148438 0 520.183594 0 C 387.828125 0 278.800781 101.898438 267.460938 231.496094 C 138.023438 242.839844 36.125 351.863281 36.125 484.378906 L 36.125 488.269531 L 0 494.261719 L 71.765625 558.089844 L 119.070312 474.496094 L 83.105469 480.492188 C 85.210938 368.226562 177.066406 277.507812 289.816406 277.507812 C 403.867188 277.507812 496.691406 370.332031 496.691406 484.378906 C 496.691406 598.429688 403.867188 691.253906 289.816406 691.253906 L 0 691.253906 L 0 738.234375 L 692.0625 738.234375 L 692.0625 810 L 810 714.742188 L 692.0625 619.488281 Z M 692.0625 691.253906 " fill-opacity="1" fill-rule="nonzero"/></svg>